<?xml version="1.0" encoding="UTF-8" standalone="no"?>
<svg width="530px" height="444px" viewBox="0 0 530 444" version="1.1" xmlns="http://www.w3.org/2000/svg" xmlns:xlink="http://www.w3.org/1999/xlink" xmlns:sketch="http://www.bohemiancoding.com/sketch/ns">
    <title>stack_geowebcache</title>
    <description>Created with Sketch (http://www.bohemiancoding.com/sketch)</description>
    <defs>
        <filter x="-20%" y="-20%" width="140%" height="140%" filterUnits="objectBoundingBox" id="filter-1">
            <feOffset dx="0" dy="2" in="SourceAlpha" result="shadowOffsetOuter1"></feOffset>
            <feGaussianBlur stdDeviation="2" in="shadowOffsetOuter1" result="shadowBlurOuter1"></feGaussianBlur>
            <feColorMatrix values="0 0 0 0 0.992156863   0 0 0 0 0.800000012   0 0 0 0 0.196078435  0 0 0 0.7 0" in="shadowBlurOuter1" type="matrix" result="shadowMatrixOuter1"></feColorMatrix>
            <feMerge>
                <feMergeNode in="shadowMatrixOuter1"></feMergeNode>
                <feMergeNode in="SourceGraphic"></feMergeNode>
            </feMerge>
        </filter>
    </defs>
    <g id="Page-1" stroke="none" stroke-width="1" fill="none" fill-rule="evenodd" sketch:type="MSPage">
        <g id="stack_geowebcache" sketch:type="MSArtboardGroup">
            <path d="M5.60722611,327.5 L525.392774,327.5" id="Line-copy-2" stroke="#979797" stroke-linecap="square" sketch:type="MSShapeGroup"></path>
            <path d="M5.60722611,118.5 L525.392774,118.5" id="Line-copy" stroke="#979797" stroke-linecap="square" sketch:type="MSShapeGroup"></path>
            <text id="Clients" fill="#898989" sketch:type="MSTextLayer" font-family="Cantarell" font-size="12" font-weight="normal">
                <tspan x="8" y="114">Clients</tspan>
            </text>
            <text id="Application-Server" fill="#898989" sketch:type="MSTextLayer" font-family="Cantarell" font-size="12" font-weight="normal">
                <tspan x="8" y="133">Application Server</tspan>
            </text>
            <text id="Database" fill="#898989" sketch:type="MSTextLayer" font-family="Cantarell" font-size="12" font-weight="normal">
                <tspan x="8" y="347">Database</tspan>
            </text>
            <text id="GeoServer" fill="#000000" sketch:type="MSTextLayer" font-family="Proxima Nova" font-size="20" font-weight="260">
                <tspan x="208" y="257">GeoServer</tspan>
            </text>
            <text id="PostGIS" fill="#000000" sketch:type="MSTextLayer" font-family="Proxima Nova" font-size="20" font-weight="260">
                <tspan x="208" y="407">PostGIS</tspan>
            </text>
            <text id="GeoWebCache" fill="#000000" filter="url(#filter-1)" sketch:type="MSTextLayer" font-family="Proxima Nova" font-size="20" font-weight="260">
                <tspan x="292" y="185">GeoWebCache</tspan>
            </text>
            <text id="OpenLayers" fill="#000000" sketch:type="MSTextLayer" font-family="Proxima Nova" font-size="20" font-weight="260">
                <tspan x="209" y="42">OpenLayers</tspan>
            </text>
            <text id="QGIS" fill="#000000" sketch:type="MSTextLayer" font-family="Proxima Nova" font-size="20" font-weight="260">
                <tspan x="406" y="42">QGIS</tspan>
            </text>
            <g id="GeoServer-Suite" sketch:type="MSLayerGroup" transform="translate(137.000000, 221.000000)" fill="#215F7B">
                <path d="M33.58962,65.644 C33.57712,65.644 33.56462,65.643 33.55462,65.643 C33.56462,65.643 33.57712,65.644 33.58962,65.644 L33.59562,65.644 C36.98937,65.644 40.40187,64.3515 42.98937,61.7665 C40.40187,64.3515 36.98937,65.644 33.59562,65.644 L33.58962,65.644 L33.58962,65.644 L33.58962,65.644 L33.58962,65.644 Z M61.24338,32.98775 C59.33463,32.519 59.55962,31.374 60.23712,31.3115 C60.91712,31.249 63.49837,31.964 63.50837,32.6615 C63.51437,33.359 62.68462,33.34025 61.24338,32.98775 L61.24338,32.98775 Z M45.15837,41.159 C44.79088,44.75775 47.12587,46.03275 42.43213,52.569 C37.74338,59.10525 33.46587,50.0915 35.40212,46.3965 C37.33962,42.69775 33.82462,38.96025 29.97087,38.56775 C26.11587,38.1715 26.90837,31.21025 31.87337,27.59275 C35.24087,25.139 42.26837,26.23775 42.99962,29.25025 C43.57587,31.61025 47.77837,30.339 48.85962,31.6665 C49.94087,32.9965 45.52837,37.5615 45.15837,41.159 L45.15837,41.159 Z M37.73337,15.20275 C38.41212,15.50025 39.34712,16.839 38.15587,16.99775 C36.96587,17.15775 36.29962,16.774 35.69962,16.0365 C34.89963,15.05775 37.05712,14.90775 37.73338,15.20275 L37.73337,15.20275 Z M65.86088,29.56275 C65.18212,29.719 61.98587,32.2515 60.04712,30.159 C55.82587,25.60525 51.67838,26.99025 53.22462,28.139 C54.43587,29.03775 54.10837,31.4865 52.15712,32.01775 C49.80837,32.654 47.51337,30.0515 47.51337,27.384 C47.51337,22.37275 44.48838,21.43525 43.50963,20.58525 C42.37588,19.60275 40.96213,21.4665 41.09963,21.9615 C41.58713,23.714 36.96213,26.299 35.49838,24.83525 C32.54838,21.884 39.74713,22.154 35.49838,20.239 C33.90588,19.52275 40.66963,17.08025 41.81713,15.93025 C42.96588,14.78275 40.66963,13.92025 40.95588,11.62275 C41.07213,10.68275 43.38588,7.764 46.34712,7.45525 L42.98963,4.0965 C42.72713,3.834 42.44588,3.5915 42.16588,3.35525 C41.60588,6.7815 36.56337,9.30775 34.67088,8.48275 C32.58088,7.569 36.65338,3.95275 32.25338,4.519 C29.51713,4.87025 29.31838,2.61025 29.55963,0.8515 C27.59588,1.47025 25.74588,2.54775 24.19588,4.0965 L20.67838,7.61775 C22.85338,7.60775 25.99713,7.909 25.99713,9.7365 C25.99713,12.53025 21.92463,12.99525 21.92463,16.60275 C21.92463,20.21025 31.23338,19.16275 24.77338,23.06025 C18.31588,26.959 25.87963,30.21525 23.08713,33.009 C20.17088,35.924 20.99463,28.23775 18.54963,29.28525 C16.10588,30.33275 13.77713,32.659 16.10588,33.8215 C18.43338,34.9865 27.85713,38.9415 22.38838,42.8965 C17.60588,46.359 14.00088,48.08775 13.17088,50.7415 L10.15213,47.724 C10.52588,46.46775 10.91588,44.37025 9.79088,43.24775 C8.11963,41.57775 8.31088,37.1965 10.86963,34.63775 C13.43088,32.07775 12.03338,28.12025 9.47338,28.12025 C7.42463,28.12025 3.84838,27.629 3.77088,24.64775 C1.84713,27.05525 0.87837,29.9915 0.87837,32.92025 C0.87837,36.319 2.16587,39.739 4.75713,42.32775 L24.19587,61.7665 C25.11088,62.6815 26.13212,63.4265 27.21962,64.01775 C32.11338,62.4765 41.83463,59.6015 44.62712,60.124 L42.98962,61.7665 L57.16837,47.58525 C55.14087,45.31775 52.10962,47.60145 49.25963,46.84025 C46.23087,46.034 49.86338,40.184 55.11087,38.369 C59.78462,36.75025 61.41462,40.26025 62.42712,42.32775 L57.16837,47.58525 L62.42712,42.32775 C65.01462,39.739 66.30588,36.324 66.30588,32.9265 C66.30588,31.79525 66.14963,30.6665 65.86088,29.56275 L65.86088,29.56275 Z M33.58713,0.219 L33.58713,0.219 L33.59313,0.219 L33.58713,0.219 L33.58713,0.219 Z" id="path22" sketch:type="MSShapeGroup"></path>
                <path d="M33.592,0.21925 L33.592,0.21925 C30.03325,0.21925 26.69575,1.59675 24.19575,4.09675 L4.7545,23.5355 C-0.42425,28.7155 -0.42425,37.14675 4.7545,42.328 L24.19575,61.76675 C26.69575,64.26675 30.03325,65.64425 33.592,65.64425 C37.1495,65.64425 40.487,64.26675 42.9895,61.76675 L62.427,42.328 C67.60825,37.14675 67.60825,28.718 62.427,23.538 L42.9895,4.09675 C40.487,1.59675 37.1495,0.21925 33.592,0.21925 M33.592,1.83425 C36.58575,1.83325 39.57575,2.968 41.847,5.238 L61.2845,24.67925 C65.82575,29.218 65.82575,36.64425 61.2845,41.18425 L41.847,60.62675 C39.57575,62.8955 36.58575,64.0305 33.592,64.0305 C30.59825,64.0305 27.607,62.89425 25.337,60.62675 L5.89825,41.18425 C1.357,36.64675 1.357,29.218 5.89625,24.67925 L25.337,5.238 C27.607,2.96925 30.60075,1.83425 33.592,1.83425" id="path26" sketch:type="MSShapeGroup"></path>
            </g>
            <g id="QGIS-Suite-copy" sketch:type="MSLayerGroup" transform="translate(333.000000, 4.000000)" fill="#215F7B">
                <path d="M34.60375,0.87625 L34.60375,0.87625 C30.93125,0.87625 27.49,2.29875 24.90875,4.8775 L4.85,24.935 C-0.49375,30.28 -0.49375,38.9775 4.85,44.325 L24.90875,64.38375 C27.49,66.96375 30.93125,68.385 34.60375,68.385 C38.27625,68.385 41.71625,66.96375 44.2975,64.38375 L64.3575,44.325 C69.7025,38.9775 69.7025,30.28125 64.3575,24.935 L44.2975,4.8775 C41.71625,2.29875 38.27625,0.87625 34.60375,0.87625 M34.60375,2.5425 C37.6925,2.5425 40.7775,3.7125 43.12,6.055 L63.18,26.11375 C67.86125,30.79875 67.86375,38.46 63.18,43.145 L43.12,63.20375 C40.7775,65.54625 37.6925,66.72 34.60375,66.72 C31.51375,66.72 28.43,65.54625 26.0875,63.20375 L6.0275,43.145 C1.34375,38.4625 1.34375,30.79875 6.0265,26.11375 L26.0875,6.055 C28.43,3.7125 31.51625,2.5425 34.60375,2.5425" id="path86" sketch:type="MSShapeGroup"></path>
                <path d="M64.36575,24.93387 L44.2995,4.87013 C41.63075,2.20137 38.10575,0.86637 34.5995,0.86887 C32.667,0.86887 30.7295,1.27512 28.93075,2.09012 C32.09075,3.14012 34.902,4.88763 37.36075,7.33638 C41.6695,11.62638 43.82325,16.98762 43.82325,23.41888 C43.82325,29.83388 41.6695,35.18637 37.36075,39.47388 C36.13325,40.70137 34.817,41.74637 33.412,42.60388 C34.21325,45.19763 35.032,47.17637 35.87075,48.54012 C36.842,50.17763 37.85825,50.99762 38.912,50.99762 C39.71075,50.99762 40.387,50.54138 40.942,49.63763 C41.49825,48.73013 41.77825,47.62387 41.77825,46.31637 L44.67075,46.31637 C44.67075,49.33888 43.757,51.77263 41.92325,53.61387 C40.09075,55.45512 37.6845,56.37762 34.70075,56.37762 C30.93825,56.37762 28.24575,55.30512 26.6295,53.16012 C25.32325,51.42512 24.68825,48.93012 24.727,45.67512 C23.577,45.79263 22.407,45.86013 21.2195,45.87887 C14.7845,45.87887 9.407,43.74013 5.0895,39.46013 C3.32325,37.70888 1.922,35.77263 0.87575,33.66262 C0.85575,33.98013 0.83955,34.30012 0.83955,34.61887 C0.83955,38.12513 2.17205,41.65512 4.84455,44.32762 L24.9083,64.39012 C27.5708,67.05512 31.09455,68.39262 34.59955,68.39262 L34.60555,68.39262 C38.1118,68.39262 41.63305,67.05637 44.2993,64.39012 L64.36555,44.32762 C67.0343,41.65638 68.3668,38.13387 68.3643,34.62638 C68.3663,31.12012 67.0318,27.60012 64.36555,24.93387" id="path90" sketch:type="MSShapeGroup"></path>
                <path d="M24.90775,4.87162 L10.6715,19.10787 C10.574,20.45412 10.519,21.88912 10.51525,23.41912 C10.51525,28.00037 10.954,31.76662 11.83275,34.70788 C11.989,33.86788 12.26025,33.04912 12.649,32.25288 C14.09275,29.34663 16.734,27.89413 20.57525,27.89413 C23.479,27.89413 25.9465,28.96537 27.97275,31.11037 C28.909,32.12413 29.7865,33.40162 30.6065,34.94287 C31.50275,31.94038 31.94275,28.09663 31.9215,23.41912 C31.9428,16.82912 31.069,11.92787 29.3065,8.70912 C28.2465,6.78038 26.8515,5.43538 25.12525,4.66287 C25.05275,4.73287 24.97775,4.79912 24.90775,4.87162" id="path94" sketch:type="MSShapeGroup"></path>
                <path d="M19.727,31.05075 C16.8395,31.05075 15.06825,32.30075 14.4045,34.79325 C14.2495,35.38075 14.17075,35.9845 14.17075,36.60825 C14.17075,38.012 14.6345,39.2995 15.5595,40.46825 C16.48575,41.6395 17.61075,42.37075 18.937,42.662 C19.6595,42.81825 20.42075,42.897 21.2195,42.897 C22.602,42.877 23.84075,42.652 24.93325,42.22325 C25.20575,38.46325 24.97195,35.69325 24.23075,33.91825 C23.432,32.00825 21.9295,31.05075 19.727,31.05075" id="path98" sketch:type="MSShapeGroup"></path>
            </g>
            <path d="M136.291309,36.52625 C136.800059,38.5875 137.968809,40.5525 139.815069,42.14625 L161.646309,60.99125 C164.195059,63.19125 167.552559,64.2925 170.913809,64.2925 C174.273809,64.2925 177.633809,63.19125 180.183809,60.99125 L202.013809,42.14625 C203.860059,40.5525 205.026309,38.5925 205.537569,36.53 C205.918809,34.9775 205.926309,33.3725 205.552569,31.81875 C205.051319,29.7375 203.876319,27.7525 202.013819,26.1425 L180.183819,7.29875 C177.633819,5.09625 174.273819,4 170.916319,4 C167.555069,4 164.195069,5.09625 161.646319,7.29875 L139.812559,26.1425 C137.951319,27.7525 136.777569,29.7375 136.275069,31.82125 L136.275069,31.81925 C135.902569,33.373 135.908819,34.97675 136.291269,36.52675 M203.292519,48.5105 L181.461279,67.353 C178.638779,69.7905 174.892529,71.13675 170.913779,71.13675 C166.935029,71.13675 163.188779,69.7905 160.363779,67.353 L138.533779,48.5105 C137.657529,47.75175 136.915019,46.913 136.283779,46.018 C136.287779,46.0318 136.287779,46.048 136.292779,46.063 C136.291779,46.065 136.291779,46.067 136.291779,46.073 C136.798019,48.12925 137.970529,50.08925 139.815529,51.68175 L161.646779,70.5255 C164.193029,72.72675 167.553029,73.82675 170.914279,73.82675 C174.271769,73.82675 177.634269,72.728 180.184279,70.5255 L202.014279,51.68175 C203.856779,50.088 205.030529,48.12925 205.538029,46.073 L205.538029,46.063 C205.542029,46.048 205.542029,46.0318 205.545029,46.018 C204.912539,46.913 204.168789,47.75175 203.292529,48.5105 M203.292529,43.743 L181.461289,62.588 C178.638789,65.0255 174.892539,66.36675 170.913789,66.36675 C166.935039,66.36675 163.188789,65.0255 160.363789,62.588 L138.533789,43.743 C137.657539,42.98675 136.915029,42.143 136.283789,41.248 C136.287789,41.263 136.287789,41.2805 136.292789,41.2967 C136.291789,41.2987 136.291789,41.3007 136.291789,41.3027 C136.798029,43.3627 137.970539,45.32145 139.815539,46.91645 L161.646789,65.75895 C164.195539,67.95895 167.553039,69.05895 170.914289,69.05895 C174.274289,69.05895 177.634279,67.9602 180.184289,65.75895 L202.014289,46.91645 C203.856789,45.31895 205.030539,43.3627 205.538039,41.3027 L205.538039,41.2967 C205.542039,41.2829 205.542039,41.263 205.545039,41.248 C204.912549,42.14425 204.168799,42.98675 203.292539,43.743" id="OpenLayers-Suite-copy" fill="#215F7B" sketch:type="MSShapeGroup"></path>
            <g id="GeoWebCache-Suite" sketch:type="MSLayerGroup" transform="translate(222.000000, 149.000000)" fill="#215F7B">
                <path d="M14.73725,34.60187 L0.48975,34.60187 C0.751,37.69687 2.05725,40.73312 4.41975,43.09438 L11.2385,49.91312 C12.8235,49.25187 14.486,48.66062 16.22225,48.14562 C15.3285,43.95938 14.811,39.39312 14.73725,34.60187 L14.73725,34.60187 Z M16.74975,50.39562 C15.4585,50.78437 14.211,51.21687 13.0085,51.68312 L11.901,50.57687 L24.37725,63.05187 L19.2985,57.97437 C18.30225,55.66562 17.44475,53.12562 16.74975,50.39562 L16.74975,50.39562 Z M16.2185,18.75187 C14.4835,18.23562 12.82225,17.64062 11.2385,16.98437 L4.41725,23.80187 C2.05725,26.16312 0.74725,29.19687 0.48725,32.29562 L14.73475,32.29562 C14.81595,27.50312 15.33225,22.93813 16.2185,18.75187 L16.2185,18.75187 Z M51.8235,48.14562 C53.561,48.66062 55.22225,49.25187 56.80725,49.91312 L55.0385,51.68312 L63.626,43.09438 C65.9885,40.73312 67.29475,37.69687 67.556,34.60187 L53.3085,34.60187 C53.2285,39.39313 52.7135,43.95938 51.8235,48.14562 L51.8235,48.14562 Z M48.751,57.97062 L55.0385,51.68313 C53.83475,51.21812 52.59225,50.78688 51.30225,50.39812 C50.6085,53.12687 49.751,55.66312 48.751,57.97062 L48.751,57.97062 Z M24.9735,3.28562 C24.771,3.46437 24.571,3.64938 24.37725,3.84562 C24.571,3.64938 24.771,3.46437 24.9735,3.28562 L24.9735,3.28562 Z M35.17725,45.66438 C40.2735,45.75188 45.13725,46.39938 49.59475,47.52688 C50.436,43.54563 50.9285,39.18063 51.001,34.60188 L35.17725,34.60188 L35.17725,45.66438 L35.17725,45.66438 L35.17725,45.66438 L35.17725,45.66438 Z M49.59475,19.37063 C45.13725,20.49812 40.2735,21.14562 35.17725,21.23313 L35.17725,32.29563 L51.00475,32.29563 C50.93975,27.71313 50.43975,23.35313 49.59475,19.37063 L49.59475,19.37063 Z M43.0235,63.65188 C42.836,63.81813 42.6385,63.96813 42.44475,64.12063 C42.43775,64.13193 42.42475,64.14313 42.41845,64.15313 C42.6247,63.99188 42.82595,63.82438 43.02345,63.65188 L43.0235,63.65188 Z M35.1772,47.97438 L35.1772,66.98313 C37.76345,66.76313 40.2997,65.80313 42.4447,64.12063 C43.66095,62.64938 44.7997,60.86688 45.8172,58.81188 C47.1172,56.19438 48.21595,53.14313 49.0697,49.77563 C44.79095,48.69188 40.1022,48.05938 35.1772,47.97438 L35.1772,47.97438 Z M63.62845,23.80188 L43.66845,3.84563 C43.4747,3.65188 43.2747,3.46688 43.07095,3.28563 C43.2747,3.46438 43.4747,3.65188 43.66845,3.84563 L48.74595,8.91938 C49.7422,11.22813 50.5997,13.77063 51.29345,16.49813 C52.5872,16.11188 53.8347,15.68063 55.03845,15.21438 L56.8072,16.98438 C55.2222,17.64063 53.56095,18.23688 51.82345,18.75188 C52.7172,22.93813 53.23345,27.50313 53.30595,32.29563 L67.55595,32.29563 C67.57225,32.48438 67.58595,32.67438 67.59345,32.86688 C67.4572,29.57438 66.1322,26.30688 63.62845,23.80188 L63.62845,23.80188 Z M18.4497,47.52688 C22.9072,46.39938 27.7722,45.75188 32.8672,45.66438 L32.8672,34.60188 L17.04095,34.60188 C17.10475,39.18563 17.60595,43.54438 18.4497,47.52688 L18.4497,47.52688 Z M33.99595,-0.13562 C33.6847,-0.13562 33.37095,-0.11932 33.05845,-0.09942 C33.37095,-0.11942 33.6822,-0.13562 33.99595,-0.13562 L33.99595,-0.13562 Z M42.44095,2.76188 C42.44495,2.76288 42.44495,2.76588 42.44495,2.76588 C42.45195,2.77588 42.46125,2.78088 42.46875,2.78718 C42.46175,2.78018 42.45245,2.76968 42.44125,2.76218 L42.44095,2.76188 Z M22.22625,8.08593 C20.925,10.70218 19.8275,13.75593 18.975,17.11968 C23.25375,18.20343 27.9425,18.83718 32.8675,18.92343 L32.8675,-0.08532 C32.9325,-0.09032 32.99625,-0.09232 33.05875,-0.09912 C30.42,0.08588 27.81625,1.03462 25.62875,2.74462 C24.40125,4.21963 23.25375,6.01338 22.22625,8.08588 L22.22625,8.08593 Z M35.1775,-0.08537 L35.1775,18.92338 C40.1025,18.83708 44.79625,18.20338 49.07,17.11963 C47.54125,11.10463 45.21125,6.11213 42.445,2.76588 C39.9825,0.83463 36.995,-0.13662 34.01875,-0.13537 L33.99625,-0.13537 L34.01875,-0.13537 C34.40375,-0.13537 34.79,-0.11537 35.1775,-0.08537 L35.1775,-0.08537 Z M42.46875,2.78713 C42.66875,2.94338 42.86375,3.10463 43.05625,3.27463 C42.86375,3.10462 42.66875,2.94338 42.46875,2.78713 L42.46875,2.78713 Z M16.745,16.49838 C17.43625,13.77088 18.2925,11.23463 19.29375,8.92963 L21.85875,6.36338 L12.245,15.97838 L13.00875,15.21463 C14.20875,15.67963 15.455,16.11213 16.745,16.49838 L16.745,16.49838 Z M25.57375,64.09713 C27.72125,65.79338 30.27,66.76213 32.8675,66.98338 L32.8675,47.97463 C27.9425,48.05963 23.25375,48.69213 18.975,49.77838 C20.49875,55.77213 22.8175,60.75213 25.57375,64.09713 L25.57375,64.09713 Z M25.59745,64.12833 C25.59045,64.11703 25.58125,64.10703 25.57375,64.09713 C25.38125,63.94338 25.185,63.79463 24.99875,63.62838 C25.195,63.80463 25.39375,63.97088 25.5975,64.12838 L25.59745,64.12833 Z M17.04625,32.29588 L32.8675,32.29588 L32.8675,21.23338 C27.77,21.14588 22.9075,20.49588 18.44875,19.37088 C17.61,23.35212 17.1175,27.71463 17.04625,32.29587 L17.04625,32.29588 Z" id="path38" sketch:type="MSShapeGroup"></path>
                <path d="M34.02325,-0.1295 L34.02325,-0.1295 C30.37075,-0.1295 26.94575,1.2855 24.3795,3.84925 L4.42575,23.80425 C-0.89175,29.1205 -0.89175,37.77425 4.42575,43.08925 L24.3795,63.0455 C26.94575,65.60925 30.37075,67.02425 34.02325,67.02425 C37.67575,67.02425 41.10075,65.60925 43.66825,63.0455 L63.62075,43.08925 C68.93575,37.77425 68.93575,29.1205 63.62075,23.80425 L43.66825,3.84925 C41.10075,1.2855 37.67575,-0.1295 34.02325,-0.1295 M34.02325,1.528 C37.09325,1.528 40.167,2.693 42.49575,5.023 L62.447,24.9755 C67.10825,29.63675 67.10825,37.25925 62.447,41.91925 L42.49575,61.8705 C40.167,64.20175 37.09325,65.36675 34.02325,65.36675 C30.952,65.36675 27.88075,64.19925 25.552,61.8705 L5.59825,41.91925 C0.93825,37.26175 0.93825,29.63675 5.59625,24.9755 L25.552,5.023 C27.88075,2.693 30.952,1.528 34.02325,1.528" id="path42" sketch:type="MSShapeGroup"></path>
            </g>
            <g id="PostGIS-Suite" sketch:type="MSLayerGroup" transform="translate(136.000000, 370.000000)">
                <path d="M41.66363,36.3315 C40.44988,36.2378 40.25237,37.70275 40.16112,38.48275 C39.77612,41.789 39.62612,43.08025 39.08113,46.36025 C38.30238,51.05025 37.29988,58.239 33.81362,61.85275 C32.80362,62.899 29.82238,63.909 28.99112,62.139 C27.57738,59.1215 31.24238,59.8165 31.76738,58.609 C34.31238,52.7365 35.66613,44.64775 33.30113,38.489 C31.44112,34.074 29.99488,36.64525 27.35487,33.824 C25.54488,31.8915 22.02737,33.67525 21.50487,34.64525 C18.56987,40.0515 18.34362,46.124 18.27612,52.64525 C18.27612,52.66395 18.31362,54.584 18.45487,56.73775 L7.05362,45.3365 C7.48987,43.339 7.75237,41.47775 7.77862,40.02025 C6.47487,40.24025 4.78362,40.379 2.93987,40.53275 C1.75362,38.444 1.15862,36.1015 1.15862,33.7715 C1.15862,30.289 2.48862,26.79275 5.13487,24.1465 L20.95987,8.32525 C22.76862,9.15775 24.50362,10.12025 25.45612,10.919 C29.27487,14.10775 32.69737,10.18775 35.54487,15.29775 C36.11987,16.3315 37.43362,18.4665 38.87362,22.63275 C39.44112,24.26525 39.58987,27.7915 40.37612,29.30275 C40.95737,30.42275 40.58862,31.20775 41.30362,32.1015 C43.45488,34.7815 47.07862,36.41275 49.10112,34.754 C48.09862,37.2665 44.45112,36.549 41.66363,36.3315 M63.88112,24.1465 L43.93988,4.2065 C41.28613,1.55025 37.78363,0.2265 34.29863,0.2265 C30.81362,0.2265 27.31488,1.55525 24.66362,4.2065 L24.66462,4.2065 L4.72212,24.1465 C2.07212,26.79275 0.74337,30.289 0.74462,33.7715 C0.74362,37.2565 2.06712,40.76525 4.72212,43.4215 L24.66462,63.36275 C27.31462,66.0115 30.81337,67.3415 34.29837,67.339 L34.30437,67.339 C37.78687,67.339 41.28812,66.01275 43.93937,63.36275 L63.88062,43.4215 C66.53312,40.76775 67.85937,37.264 67.85812,33.779 C67.85912,30.29525 66.53312,26.79775 63.88062,24.1465 M34.67687,25.35275 C33.91687,25.35275 33.30062,25.97275 33.30062,26.7365 C33.30062,27.5015 33.91687,28.119 34.67687,28.119 C35.43937,28.119 36.05812,27.5015 36.05812,26.7365 C36.05812,25.97275 35.43937,25.35275 34.67687,25.35275" id="path66" fill="#215F7B" sketch:type="MSShapeGroup"></path>
                <path d="M34.6775,25.56 C34.03125,25.56 33.505,26.08875 33.505,26.73625 C33.505,27.38375 34.03125,27.9125 34.6775,27.9125 C35.32375,27.9125 35.85,27.38375 35.85,26.73625 C35.85,26.08875 35.32375,25.56 34.6775,25.56 L34.6775,25.56 Z M34.6775,28.325 C33.80375,28.325 33.09125,27.6125 33.09125,26.73625 C33.09125,25.86125 33.80375,25.14625 34.6775,25.14625 C35.55125,25.14625 36.265,25.86125 36.265,26.73625 C36.265,27.6125 35.55125,28.325 34.6775,28.325 L34.6775,28.325 Z M2.88125,40.745 C3.43375,41.65375 4.09875,42.505 4.86875,43.275 L6.8575,45.2625 C7.27375,43.34875 7.51625,41.6275 7.56375,40.26625 C6.33,40.4575 4.76875,40.5875 3.125,40.725 L2.88125,40.745 L2.88125,40.745 L2.88125,40.745 L2.88125,40.745 Z M25.21875,32.755 C26.14625,32.755 26.9375,33.075 27.505,33.68125 C28.58625,34.83875 29.43125,35.0475 30.25,35.25 C31.3925,35.5325 32.3825,35.77625 33.49,38.41 C35.1425,42.70375 35.60375,50.28125 31.95625,58.69375 C31.735,59.2025 31.1175,59.405 30.465,59.62 C29.8275,59.83 29.17,60.04625 28.955,60.54375 C28.8,60.90375 28.8725,61.3975 29.18,62.0525 C29.4425,62.61375 29.965,62.8975 30.7325,62.8975 C31.83625,62.8975 33.11375,62.28 33.6625,61.7075 C36.9075,58.34375 37.97125,51.87125 38.74375,47.14375 L38.87625,46.32875 C39.42625,43.02 39.5825,41.685 39.9575,38.46 C40.0413,37.73875 40.22875,36.02 41.68125,36.125 C42.02375,36.1525 42.385,36.1875 42.75125,36.2225 C43.59375,36.3037 44.465,36.3875 45.28375,36.3875 C46.8775,36.3875 47.9075,36.0625 48.50625,35.3575 C48.08625,35.54 47.61625,35.63 47.1025,35.63 C45.16875,35.63 42.775,34.265 41.14375,32.23125 C40.72125,31.7025 40.64375,31.21625 40.56875,30.70125 C40.50495,30.2975 40.4425,29.88125 40.1925,29.39875 C39.72625,28.505 39.4875,26.97625 39.25,25.4975 C39.07875,24.41 38.91375,23.3825 38.67875,22.70125 C37.3875,18.97 36.2,16.87125 35.55875,15.74375 L35.36375,15.39625 C33.82625,12.64125 32.17,12.61375 30.2475,12.58125 C28.75375,12.555 27.06,12.52625 25.32375,11.0775 C24.47375,10.365 22.9025,9.45625 21.005,8.5725 L5.28125,24.2925 C2.75625,26.8175 1.365,30.185 1.365,33.77125 C1.365,36.0625 1.94875,38.32125 3.055,40.315 L3.0912,40.313 C4.83745,40.168 6.4887,40.0305 7.74245,39.818 L7.9887,39.7755 L7.9847,40.02425 C7.9597,41.433 7.71595,43.24425 7.27845,45.2705 L18.21345,56.2055 C18.10095,54.28425 18.0697,52.65675 18.0697,52.6455 C18.1385,45.898 18.42845,39.87925 21.32095,34.54675 C21.71095,33.82675 23.5197,32.7555 25.21845,32.7555 L25.21875,32.755 Z M18.6847,57.0905 L24.8097,63.21675 C27.33595,65.74175 30.70345,67.133 34.29345,67.133 L34.29345,67.33925 L34.29845,67.133 C37.8972,67.133 41.26595,65.74175 43.7947,63.21675 L63.7325,43.275 C66.2625,40.745 67.6525,37.37375 67.65125,33.78 C67.65225,30.18875 66.265,26.82 63.73625,24.2925 L43.795,4.35125 C41.26875,1.82625 37.8975,0.43375 34.3025,0.43375 C30.75,0.43375 27.42,1.79 24.905,4.2575 L21.0325,8.13 L21.045,8.1363 C23.03625,9.05255 24.69125,10.01005 25.58875,10.7588 C27.21125,12.1138 28.76125,12.1413 30.25375,12.16755 C32.21875,12.20005 34.0725,12.2313 35.725,15.19505 L35.92,15.5388 C36.565,16.6788 37.7675,18.7988 39.07,22.56505 C39.3175,23.28255 39.4825,24.32755 39.6575,25.43255 C39.88875,26.8788 40.12375,28.37255 40.56125,29.20755 C40.84375,29.75005 40.9125,30.2213 40.97625,30.6388 C41.04875,31.1163 41.1125,31.53005 41.4675,31.9713 C43.02375,33.9138 45.2875,35.2163 47.1025,35.2163 C47.83875,35.2163 48.46625,35.0088 48.96875,34.59505 L49.58875,34.08505 L49.29125,34.83005 C48.59125,36.59505 46.6675,36.80005 45.28375,36.80005 C44.44625,36.80005 43.5625,36.71635 42.71125,36.6338 C42.3475,36.6 41.99125,36.5638 41.64875,36.5388 C40.7125,36.4688 40.485,37.4963 40.36875,38.5088 C39.99,41.7413 39.8375,43.0788 39.2875,46.3938 L39.15125,47.2088 C38.37,51.99255 37.29625,58.5388 33.9625,61.99505 C33.34,62.64255 31.96,63.3113 30.7325,63.3113 C29.80375,63.3113 29.13875,62.9363 28.80625,62.2288 C28.445,61.4613 28.37,60.8563 28.575,60.38005 C28.86375,59.7113 29.64625,59.4538 30.335,59.22755 C30.89875,59.04255 31.4275,58.8688 31.5775,58.52755 C33.93375,53.08755 35.575,44.98755 33.10625,38.56505 C32.08125,36.1288 31.22875,35.9163 30.15125,35.6513 C29.31375,35.44505 28.3675,35.2113 27.2025,33.9638 C26.70875,33.4363 26.0425,33.1688 25.21875,33.1688 C23.58,33.1688 21.9775,34.20255 21.68625,34.74255 C18.83875,39.9913 18.55,45.9563 18.485,52.6463 C18.485,52.6588 18.5212,54.58255 18.66125,56.72505 L18.68505,57.09005 L18.68505,57.09005 L18.6847,57.0905 L18.6847,57.0905 Z M34.3047,67.54675 L34.2934,67.54675 C30.5934,67.54675 27.1209,66.11175 24.51715,63.508 L4.575,43.56875 C1.97,40.96125 0.53625,37.48375 0.5375,33.77125 C0.5365,30.0725 1.97,26.60375 4.575,24 L24.5175,4.05875 C27.12125,1.455 30.59375,0.02 34.29375,0.02 C38.00875,0.02 41.4825,1.455 44.08625,4.05875 L64.03,24 C66.635,26.605 68.0675,30.0775 68.06375,33.78 C68.06775,37.485 66.63125,40.96 64.02625,43.56875 L44.08625,63.5075 C41.4825,66.11125 38.00875,67.54625 34.305,67.54625 L34.3047,67.54675 Z" id="path70" fill="#28728D" sketch:type="MSShapeGroup"></path>
                <path d="M34.3015,0.228 L34.3015,0.228 C30.6515,0.228 27.229,1.6405 24.664,4.2055 L4.72025,24.148 C-0.591,29.4605 -0.58975,38.108 4.72025,43.4205 L24.664,63.363 C27.229,65.92675 30.6515,67.3405 34.3015,67.3405 C37.9515,67.3405 41.374,65.92675 43.94025,63.363 L63.8815,43.4205 C69.19525,38.108 69.19525,29.4605 63.8825,24.148 L43.94025,4.2055 C41.374,1.6405 37.9515,0.228 34.3015,0.228 M34.3015,1.88425 C37.37275,1.88425 40.439,3.04925 42.77025,5.378 L62.71275,25.318 C67.3665,29.97425 67.3665,37.59175 62.71275,42.2505 L42.77025,62.1905 C40.439,64.51925 37.37025,65.68425 34.3015,65.68425 C31.23275,65.68425 28.16275,64.51925 25.8365,62.1905 L5.89275,42.2505 C1.2365,37.59425 1.2365,29.97425 5.89175,25.318 L25.83675,5.378 C28.163,3.04925 31.233,1.88425 34.30175,1.88425" id="path74" fill="#28728D" sketch:type="MSShapeGroup"></path>
            </g>
            <path d="M171,124 L171,213" id="Line" stroke="#7EB5D3" stroke-width="2" stroke-linecap="square" fill="#7EB5D3" sketch:type="MSShapeGroup"></path>
            <path id="Line-decoration-1" d="M171,213 C172.05,209.22 172.95,205.98 174,202.2 C171.9,202.2 170.1,202.2 168,202.2 C169.05,205.98 169.95,209.22 171,213 C171,213 171,213 171,213 Z" stroke="#7EB5D3" stroke-width="2" stroke-linecap="square" fill="#7EB5D3"></path>
            <path id="Line-decoration-2" d="M171,124.8 C172.05,128.58 172.95,131.82 174,135.6 C171.9,135.6 170.1,135.6 168,135.6 C169.05,131.82 169.95,128.58 171,124.8 C171,124.8 171,124.8 171,124.8 Z" stroke="#7EB5D3" stroke-width="2" stroke-linecap="square" fill="#7EB5D3"></path>
            <path d="M171,81 L171,112" id="Line-copy" stroke="#7EB5D3" stroke-width="2" stroke-linecap="square" fill="#7EB5D3" sketch:type="MSShapeGroup"></path>
            <path id="Line-copy-decoration-1" d="M171,112 C172.05,108.22 172.95,104.98 174,101.2 C171.9,101.2 170.1,101.2 168,101.2 C169.05,104.98 169.95,108.22 171,112 C171,112 171,112 171,112 Z" stroke="#7EB5D3" stroke-width="2" stroke-linecap="square" fill="#7EB5D3"></path>
            <path id="Line-copy-decoration-2" d="M171,81.8 C172.05,85.58 172.95,88.8200001 174,92.6000001 C171.9,92.6 170.1,92.6 168,92.5999999 C169.05,88.8199999 169.95,85.58 171,81.8 C171,81.8 171,81.8 171,81.8 Z" stroke="#7EB5D3" stroke-width="2" stroke-linecap="square" fill="#7EB5D3"></path>
            <path d="M171,292 L171,323" id="Line-copy-2" stroke="#7EB5D3" stroke-width="2" stroke-linecap="square" fill="#7EB5D3" sketch:type="MSShapeGroup"></path>
            <path id="Line-copy-2-decoration-1" d="M171,323 C172.05,319.22 172.95,315.98 174,312.2 C171.9,312.2 170.1,312.2 168,312.2 C169.05,315.98 169.95,319.22 171,323 C171,323 171,323 171,323 Z" stroke="#7EB5D3" stroke-width="2" stroke-linecap="square" fill="#7EB5D3"></path>
            <path id="Line-copy-2-decoration-2" d="M171,292.8 C172.05,296.58 172.95,299.82 174,303.6 C171.9,303.6 170.1,303.6 168,303.6 C169.05,299.82 169.95,296.58 171,292.8 C171,292.8 171,292.8 171,292.8 Z" stroke="#7EB5D3" stroke-width="2" stroke-linecap="square" fill="#7EB5D3"></path>
            <path d="M171,332 L171,363" id="Line-copy-3" stroke="#7EB5D3" stroke-width="2" stroke-linecap="square" fill="#7EB5D3" sketch:type="MSShapeGroup"></path>
            <path id="Line-copy-3-decoration-1" d="M171,363 C172.05,359.22 172.95,355.98 174,352.2 C171.9,352.2 170.1,352.2 168,352.2 C169.05,355.98 169.95,359.22 171,363 C171,363 171,363 171,363 Z" stroke="#7EB5D3" stroke-width="2" stroke-linecap="square" fill="#7EB5D3"></path>
            <path id="Line-copy-3-decoration-2" d="M171,332.8 C172.05,336.58 172.95,339.82 174,343.6 C171.9,343.6 170.1,343.6 168,343.6 C169.05,339.82 169.95,336.58 171,332.8 C171,332.8 171,332.8 171,332.8 Z" stroke="#7EB5D3" stroke-width="2" stroke-linecap="square" fill="#7EB5D3"></path>
            <path d="M368,81 L368,112" id="Line-copy-2" stroke="#7EB5D3" stroke-width="2" stroke-linecap="square" fill="#7EB5D3" sketch:type="MSShapeGroup"></path>
            <path id="Line-copy-2-decoration-1" d="M368,112 C369.05,108.22 369.95,104.98 371,101.2 C368.9,101.2 367.1,101.2 365,101.2 C366.05,104.98 366.95,108.22 368,112 C368,112 368,112 368,112 Z" stroke="#7EB5D3" stroke-width="2" stroke-linecap="square" fill="#7EB5D3"></path>
            <path id="Line-copy-2-decoration-2" d="M368,81.8 C369.05,85.58 369.95,88.8200001 371,92.6000001 C368.9,92.6 367.1,92.6 365,92.5999999 C366.05,88.8199999 366.95,85.58 368,81.8 C368,81.8 368,81.8 368,81.8 Z" stroke="#7EB5D3" stroke-width="2" stroke-linecap="square" fill="#7EB5D3"></path>
            <path d="M257.646423,124 L257.646423,145" id="Line-copy-2" stroke="#7EB5D3" stroke-width="2" stroke-linecap="square" fill="#7EB5D3" sketch:type="MSShapeGroup"></path>
            <path id="Line-copy-2-decoration-1" d="M257.646423,124.8 C258.696423,128.58 259.596423,131.82 260.646423,135.6 C258.546423,135.6 256.746423,135.6 254.646423,135.6 C255.696423,131.82 256.596423,128.58 257.646423,124.8 C257.646423,124.8 257.646423,124.8 257.646423,124.8 Z" stroke="#7EB5D3" stroke-width="2" stroke-linecap="square" fill="#7EB5D3"></path>
            <path d="M223.835278,203.837745 L197.646423,230.0266" id="Line-copy-3" stroke="#7EB5D3" stroke-width="2" stroke-linecap="square" fill="#7EB5D3" sketch:type="MSShapeGroup"></path>
            <path id="Line-copy-3-decoration-1" d="M223.269592,204.403431 C221.339191,207.818756 219.684561,210.746179 217.754159,214.161504 C216.269235,212.67658 214.996443,211.403788 213.511519,209.918864 C216.926844,207.988462 219.854266,206.333832 223.269592,204.403431 C223.269592,204.403431 223.269592,204.403431 223.269592,204.403431 Z" stroke="#7EB5D3" stroke-width="2" stroke-linecap="square" fill="#7EB5D3"></path>
        </g>
    </g>
</svg>