<?xml version="1.0" standalone="no"?>
<!DOCTYPE svg PUBLIC "-//W3C//DTD SVG 1.1//EN" "http://www.w3.org/Graphics/SVG/1.1/DTD/svg11.dtd" >
<svg xmlns="http://www.w3.org/2000/svg">
<metadata></metadata>
<defs>
<font id="cantarelloblique" horiz-adv-x="1300" >
<font-face units-per-em="2048" ascent="1514" descent="-534" />
<missing-glyph horiz-adv-x="560" />
<glyph horiz-adv-x="2048" />
<glyph horiz-adv-x="2048" />
<glyph unicode="&#xd;" horiz-adv-x="682" />
<glyph unicode=" "  horiz-adv-x="560" />
<glyph unicode="&#x09;" horiz-adv-x="560" />
<glyph unicode="&#xa0;" horiz-adv-x="560" />
<glyph unicode="!" horiz-adv-x="650" d="M225 0l57 200h200l-57 -200h-200zM371 458l276 963h170l-276 -963h-170z" />
<glyph unicode="&#x22;" horiz-adv-x="795" d="M421 1083l122 428h185l-122 -428h-185zM811 1083l122 428h185l-122 -428h-185z" />
<glyph unicode="#" horiz-adv-x="1402" d="M155 378l43 150h316l101 352h-318l43 150h318l112 391h160l-112 -391h358l112 391h160l-112 -391h316l-43 -150h-316l-101 -352h316l-43 -150h-316l-117 -408h-160l117 408h-358l-117 -408h-160l117 408h-316zM674 528h358l101 352h-358z" />
<glyph unicode="$" horiz-adv-x="1200" d="M313 300l82 124q83 -40 139 -55t120 -15q58 0 104.5 7.5t89 24.5t72 49.5t42.5 79.5q4 16 4 24q0 30 -25 53t-64.5 39.5t-87.5 32t-96 35t-87.5 43.5t-64.5 62.5t-25 87.5q0 32 10 68q11 39 37.5 79t70.5 81t115.5 73.5t158.5 46.5l77 271h121l-74 -260q60 0 105.5 -5.5 t71.5 -12t76 -22.5l-78 -125q-123 37 -225 37q-73 0 -129 -16t-86 -41.5t-45 -46.5t-21 -42q-3 -11 -3 -21q0 -39 47 -69t114 -54t134.5 -51.5t114.5 -75.5t47 -112q0 -27 -9 -60q-13 -46 -40 -89.5t-73 -88.5t-122 -78.5t-171 -45.5l-86 -297h-121l84 290q-142 0 -304 75z " />
<glyph unicode="%" horiz-adv-x="1329" d="M85 0l1376 1421h170l-1376 -1421h-170zM391 968q0 55 20 125q25 88 77.5 151t111 91t118.5 28q29 0 55 -6.5t53 -22t43 -48.5t16 -80q0 -52 -18 -114q-38 -133 -124.5 -209.5t-185.5 -76.5q-74 0 -120 38.5t-46 123.5zM494 1000q0 -56 26.5 -78t64.5 -22q24 0 47 8 t48.5 27.5t49 58.5t39.5 95q14 48 14 84q0 95 -93 95q-24 0 -47.5 -8t-49 -26.5t-47.5 -54t-36 -85.5q-16 -55 -16 -94zM838 227q0 55 20 125q37 130 125 200.5t181 70.5q29 0 55.5 -6.5t53.5 -22.5t43 -49t16 -81q0 -52 -18 -113q-38 -132 -125 -208.5t-186 -76.5 q-74 0 -119.5 38t-45.5 123zM940 259q0 -56 26.5 -78t64.5 -22q24 0 47 8t48.5 27.5t49 58.5t39.5 95q14 48 14 83q0 53 -27.5 74.5t-66.5 21.5q-24 0 -47.5 -8t-49 -26.5t-47.5 -54t-36 -85.5q-15 -52 -15 -94z" />
<glyph unicode="&#x26;" horiz-adv-x="1589" d="M246 181q0 49 15 101q11 38 28.5 75t36 67.5t47 63.5t49 55.5t55.5 51.5t54 44.5t56.5 41t50.5 34t48 31t39 24.5q-2 4 -15 22.5t-16.5 24t-15 23.5t-16 25.5t-13.5 24.5t-13 27.5t-10 27.5t-8.5 30t-4.5 29.5t-2 32.5q0 41 13 86q40 140 182.5 228.5t313.5 88.5 q127 0 197 -54.5t70 -143.5q0 -34 -10 -67q-9 -32 -27.5 -64t-37 -57.5t-52 -56.5t-55.5 -50t-64.5 -49t-63 -43t-67.5 -43.5t-61 -39.5l242 -371l424 353l66 -94l-425 -359l197 -301h-203l-136 201q-52 -40 -87.5 -65.5t-100 -64t-120.5 -61.5t-132 -40t-151 -17 q-134 0 -205.5 62t-71.5 166zM432 266q0 -73 51.5 -119.5t138.5 -46.5q47 0 99 15t91.5 33t91 50.5t76 50.5t66.5 50l-253 372q-148 -96 -198 -136q-123 -100 -154 -208q-9 -31 -9 -61zM782 1071q0 -25 10 -51.5t21.5 -44t35.5 -51.5t36 -53q20 13 63 40t59 37t48.5 32 t45.5 32.5t34.5 29.5t31 32.5t20 31.5t15.5 37q5 16 5 37q0 50 -38.5 83.5t-106.5 33.5q-90 0 -171.5 -54.5t-102.5 -128.5q-6 -22 -6 -43z" />
<glyph unicode="'" horiz-adv-x="405" d="M421 1083l122 428h185l-122 -428h-185z" />
<glyph unicode="(" horiz-adv-x="742" d="M327 151q0 222 58 425q40 138 110 282.5t155.5 271.5t163 226.5t160.5 191.5l112 -69q-288 -326 -438.5 -668t-150.5 -680q0 -230 72 -455l-153 -84q-89 275 -89 559z" />
<glyph unicode=")" horiz-adv-x="742" d="M-13 -324q81 91 152.5 184t155 229.5t142 273.5t98 310t39.5 345q0 232 -70 461l152 69q89 -273 89 -552q0 -220 -58 -420q-40 -139 -111 -285.5t-158 -276t-165.5 -230.5t-160.5 -192z" />
<glyph unicode="*" horiz-adv-x="1196" d="M422 843l326 145l-244 141l127 148l216 -175l73 319h170l-109 -319l316 175l43 -148l-325 -141l243 -145l-128 -148l-216 175l-73 -318h-170l109 318l-316 -175z" />
<glyph unicode="+" horiz-adv-x="1400" d="M294 589l39 138h501l146 506h148l-146 -506h501l-39 -138h-501l-145 -506h-148l145 506h-501z" />
<glyph unicode="," horiz-adv-x="570" d="M-21 -220l270 390h180l-270 -390h-180z" />
<glyph unicode="-" horiz-adv-x="1210" d="M344 589l40 139h860l-40 -139h-860z" />
<glyph unicode="." horiz-adv-x="570" d="M180 0l60 210h210l-60 -210h-210z" />
<glyph unicode="/" horiz-adv-x="726" d="M14 -90l929 1511h170l-929 -1511h-170z" />
<glyph unicode="0" d="M269 408q0 143 51 320q46 159 118 286t150 205t166 129.5t163.5 71.5t144.5 20q54 0 105.5 -12.5t102.5 -43t89 -77t61.5 -120t23.5 -165.5q0 -132 -47 -296q-48 -168 -122 -301t-152.5 -214.5t-167.5 -135.5t-164 -74.5t-145 -20.5q-54 0 -105 12.5t-101 44t-87.5 79 t-60.5 123t-23 169.5zM442 448q0 -86 22 -150t59 -99.5t78.5 -52t87.5 -16.5q48 0 100.5 17t115 60t119.5 107.5t111.5 170t92.5 237.5q41 143 41 255q0 84 -22.5 146.5t-60.5 97t-80 50.5t-88 16q-48 0 -100.5 -16t-114.5 -57t-118 -102t-109 -160t-88 -222 q-46 -161 -46 -282z" />
<glyph unicode="1" d="M292 0l43 149h334l317 1108l-347 -123l-22 147l384 140h196l-364 -1272h330l-43 -149h-828z" />
<glyph unicode="2" d="M225 0l27 93q74 122 165 228.5t176.5 180t173 138t162.5 113.5t137 94t104 92t56 96q8 29 8 53q0 84 -71.5 140t-184.5 56q-143 0 -396 -82l-11 132q257 97 481 97q176 0 274 -77.5t98 -199.5q0 -44 -13 -89q-21 -73 -68 -137.5t-110.5 -117t-138 -103.5t-157.5 -108 t-162 -118.5t-159 -147.5t-141 -183h700l-43 -150h-907z" />
<glyph unicode="3" d="M185 32l88 138q191 -57 308 -57q156 0 289 80t169 206q10 33 10 68q0 32 -9 60.5t-35 58t-67 50.5t-110 34.5t-160 13.5l42 146q90 0 165.5 16.5t125 41.5t86.5 58.5t56.5 64.5t28.5 63q7 24 7 49q0 71 -58.5 116t-166.5 45q-147 0 -350 -83l-16 135q236 102 431 102 q157 0 251 -71t94 -185q0 -39 -12 -81q-32 -111 -116.5 -198t-194.5 -125q198 -57 198 -234q0 -53 -16 -108q-62 -215 -255.5 -348t-433.5 -133q-185 0 -349 77z" />
<glyph unicode="4" d="M219 344l32 112l850 965h238l-265 -927h248l-43 -150h-248l-99 -344h-164l99 344h-648zM458 494h452l219 765z" />
<glyph unicode="5" d="M177 15l76 151q141 -32 311 -32q101 0 186 20t140.5 51.5t97.5 73t63.5 80t33.5 78.5q10 38 10 74q0 45 -16 83.5t-52 73.5t-105 55.5t-164 20.5q-105 0 -317 -24l201 701h856l-43 -150h-693l-111 -388q107 13 207 13t177 -18.5t123.5 -48.5t76.5 -72.5t41 -84.5t11 -90 q0 -62 -19 -128q-11 -37 -27.5 -75.5t-47.5 -86t-70 -90t-98 -84.5t-128 -71.5t-163 -48t-201 -18.5q-184 0 -356 35z" />
<glyph unicode="6" d="M291 311q0 114 43 266q56 196 140.5 347t179 245.5t209 155t224 84t230.5 23.5q52 0 122 -7l-55 -148q-52 6 -105 6q-96 0 -180.5 -18t-147 -46t-117.5 -70.5t-91.5 -83.5t-69.5 -93.5t-52 -91.5t-38 -86q74 63 169.5 100.5t197.5 37.5q157 0 246.5 -83.5t89.5 -225.5 q0 -66 -21 -141q-61 -211 -241 -359t-396 -148q-47 0 -89 7.5t-89 29.5t-81 57.5t-56 97.5t-22 144zM457 371q0 -109 62 -182.5t168 -73.5q127 0 247.5 103.5t161.5 245.5q15 54 15 99q0 105 -67.5 167t-172.5 62q-129 0 -244 -89t-155 -227q-15 -54 -15 -105z" />
<glyph unicode="7" d="M308 0l1014 1261h-829l45 160h1038l-30 -107l-1040 -1314h-198z" />
<glyph unicode="8" d="M247 290q0 48 15 100q34 121 143.5 230.5t255.5 170.5q-128 76 -128 219q0 47 12 88q41 144 182 243t329 99q171 0 257.5 -61.5t86.5 -175.5q0 -50 -17 -110q-25 -87 -94 -157t-193 -144q187 -97 187 -282q0 -73 -31.5 -149.5t-90.5 -144t-136 -121t-175 -84.5t-201 -31 q-179 0 -290.5 85.5t-111.5 224.5zM431 340q0 -91 71 -150.5t198 -59.5q140 0 248 77.5t141 189.5q12 42 12 78q0 41 -15.5 77t-40.5 61.5t-62 47.5t-73 36.5t-82 28.5q-150 -41 -254.5 -131t-133.5 -190q-9 -33 -9 -65zM705 1049q0 -33 17 -62.5t38 -48t59.5 -37.5 t60.5 -27t62 -22q127 67 191.5 117.5t84.5 118.5q8 27 8 56q0 73 -59 113t-152 40q-103 0 -191.5 -60t-111.5 -140q-7 -24 -7 -48z" />
<glyph unicode="9" d="M265 -9l55 148q44 -5 106 -5q99 0 185 18.5t147.5 46t116.5 73t89.5 86t68.5 100t51.5 99t41.5 98.5q-80 -66 -175 -98.5t-184 -32.5q-155 0 -247.5 85t-92.5 224q0 62 19 126q37 130 132.5 240t228.5 176t272 66q48 0 91 -8t88.5 -30.5t78.5 -58t54 -97t21 -141.5 q0 -118 -44 -271q-56 -194 -139.5 -344t-178.5 -244t-209 -154.5t-223.5 -84t-229.5 -23.5q-63 0 -123 6zM603 892q0 -100 68 -164t173 -64q127 0 243 88t151 211q12 42 12 84q0 104 -64 179t-169 75q-121 0 -243.5 -100t-158.5 -226q-12 -43 -12 -83z" />
<glyph unicode=":" horiz-adv-x="570" d="M180 0l60 210h210l-60 -210h-210zM405 783l60 210h210l-60 -210h-210z" />
<glyph unicode=";" horiz-adv-x="570" d="M-21 -220l270 390h180l-270 -390h-180zM405 783l60 210h210l-60 -210h-210z" />
<glyph unicode="&#x3c;" horiz-adv-x="1073" d="M253 533l47 165l996 430l-44 -155l-800 -352l603 -336l-48 -165z" />
<glyph unicode="=" horiz-adv-x="1400" d="M321 351l43 150h960l-43 -150h-960zM451 804l43 150h960l-43 -150h-960z" />
<glyph unicode="&#x3e;" horiz-adv-x="1073" d="M134 120l48 165l795 336l-598 352l44 155l750 -430l-47 -165z" />
<glyph unicode="?" horiz-adv-x="1046" d="M311 0l57 200h200l-57 -200h-200zM438 392q25 86 66 156t88.5 116t99.5 84.5t102.5 71.5t94.5 66.5t78.5 80t50.5 102.5q9 32 9 59q0 32 -12 59.5t-39 52.5t-80.5 39.5t-128.5 14.5q-57 0 -131 -13.5t-126 -33.5l-17 122q158 68 342 68q178 0 275 -60t97 -178 q0 -48 -16 -102q-23 -82 -63 -146.5t-85.5 -107t-96.5 -79t-101.5 -71t-95.5 -73.5t-82.5 -97t-58.5 -131h-170z" />
<glyph unicode="@" horiz-adv-x="2100" d="M250 108q0 130 47 296q29 102 69.5 198t100.5 197t133 187.5t171.5 163.5t211 131.5t256.5 86t304 31.5q633 0 633 -503q0 -157 -61 -366q-45 -156 -110.5 -276.5t-130 -188t-136.5 -110.5t-125 -56.5t-101 -13.5q-88 0 -140 47t-57 124q-152 -76 -292 -76 q-147 0 -232.5 81t-85.5 225q0 74 26 166q65 226 230.5 368t368.5 142q127 0 229 -59l42 65h113l-206 -716q-27 -97 -27 -139q0 -93 90 -93q37 0 82.5 26t97 80t102.5 154t88 230q49 173 49 301q0 427 -535 427q-125 0 -238.5 -28t-203 -75t-168 -112.5t-136 -136.5 t-105 -151.5t-78 -152.5t-51.5 -144q-37 -132 -37 -243q0 -116 38.5 -208.5t106.5 -151t157.5 -89.5t194.5 -31q154 0 311 67l29 -119q-201 -90 -405 -90q-51 0 -102.5 5.5t-114.5 21.5t-118 40.5t-108.5 67t-91.5 96.5t-61.5 132t-23.5 172zM868 343q0 -113 67 -173.5 t178 -60.5q103 0 214 52l182 633q-90 46 -191 46q-143 0 -261 -96.5t-168 -268.5q-21 -73 -21 -132z" />
<glyph unicode="A" horiz-adv-x="1383" d="M130 0l912 1421h193l98 -1421h-172l-26 413h-586l-262 -413h-157zM643 562h483l-42 693z" />
<glyph unicode="B" horiz-adv-x="1424" d="M290 0l407 1421h501q74 0 130.5 -15.5t89 -39.5t53 -58t27.5 -65t7 -66q0 -49 -14 -98q-25 -87 -108.5 -173.5t-156.5 -111.5q99 -19 155.5 -90t56.5 -171q0 -49 -15 -102q-9 -31 -24 -65t-43.5 -77t-65 -82t-90.5 -77.5t-117.5 -66.5t-149 -45.5t-181.5 -17.5h-462z M503 150h265q36 0 60.5 0.5t72.5 6t83 15t80 29t77.5 46.5t62 69.5t44.5 96.5q12 42 12 78q0 98 -82 151.5t-228 53.5q-20 0 -294 -14zM693 814q19 1 66 1.5t73.5 0.5t74.5 4t78 8.5t73 14t72 22t63 32t57 43.5t43.5 57.5t31.5 73.5q10 33 10 66q0 67 -52 110.5t-179 43.5 h-274z" />
<glyph unicode="C" horiz-adv-x="1451" d="M442 481q0 105 31 216t87.5 217t142 199.5t188.5 164.5t234 112t271 41q194 0 365 -76l-93 -141q-175 67 -320 67q-120 0 -236 -47.5t-206.5 -127t-157.5 -182t-99 -214.5q-26 -92 -26 -173q0 -179 113.5 -290t320.5 -111q154 0 338 60l16 -126q-235 -90 -442 -90 q-134 0 -236.5 39.5t-165 109t-94 158.5t-31.5 194z" />
<glyph unicode="D" horiz-adv-x="1606" d="M290 0l407 1421h440q126 0 223.5 -23.5t160.5 -63t103.5 -96.5t57 -119t16.5 -135q0 -107 -36 -230q-27 -93 -65.5 -179t-98.5 -175t-133.5 -159.5t-174.5 -127t-217 -83.5q-60 -14 -131 -21t-116.5 -8t-127.5 -1h-308zM503 150h207q45 0 75 1t81.5 6t91 15t92 29t96 46 t91.5 69t90 95q102 129 154 309q30 103 30 193q0 79 -23.5 143t-63.5 105.5t-88.5 66.5t-104.5 35q-42 8 -131 8h-276z" />
<glyph unicode="E" horiz-adv-x="1283" d="M290 0l407 1421h833l-43 -150h-663l-133 -464h608l-43 -150h-608l-145 -507h663l-43 -150h-833z" />
<glyph unicode="F" horiz-adv-x="1248" d="M290 0l407 1421h823l-43 -150h-653l-133 -464h593l-43 -150h-593l-188 -657h-170z" />
<glyph unicode="G" horiz-adv-x="1591" d="M383 479q0 105 31 216.5t87.5 217.5t142 200t188 165t231.5 112.5t267 41.5q239 0 422 -121l-103 -127q-64 40 -157 69t-196 29q-105 0 -213.5 -39t-205 -109.5t-173 -178t-113.5 -235.5q-27 -96 -27 -180q0 -186 117.5 -297.5t318.5 -111.5q193 0 347 116l104 363h-404 l40 140h569l-160 -558q-36 -31 -80 -60t-118 -67t-174 -61.5t-208 -23.5q-136 0 -240 39t-167 108.5t-94.5 158t-31.5 193.5z" />
<glyph unicode="H" horiz-adv-x="1600" d="M290 0l407 1421h170l-175 -613h760l175 613h170l-407 -1421h-170l189 658h-760l-189 -658h-170z" />
<glyph unicode="I" horiz-adv-x="730" d="M320 0l407 1421h170l-407 -1421h-170z" />
<glyph unicode="J" horiz-adv-x="953" d="M112 7l68 142q63 -16 136 -16q61 0 112.5 12.5t87 30t65.5 45.5t47 51t32 55.5t20.5 49t12.5 40.5l287 1004h170l-285 -995q-31 -111 -72.5 -185t-117.5 -135q-153 -123 -374 -123q-101 0 -189 24z" />
<glyph unicode="K" horiz-adv-x="1417" d="M290 0l407 1421h170l-407 -1421h-170zM693 729l800 692h213l-795 -678l426 -743h-219z" />
<glyph unicode="L" horiz-adv-x="1133" d="M290 0l407 1421h170l-364 -1272h638l-43 -149h-808z" />
<glyph unicode="M" horiz-adv-x="1884" d="M290 0l407 1421h240l209 -862l710 862h225l-407 -1421h-170l337 1177l-657 -770h-170l-217 770l-337 -1177h-170z" />
<glyph unicode="N" horiz-adv-x="1659" d="M290 0l407 1421h215l434 -1189l340 1189h170l-407 -1421h-215l-432 1191l-342 -1191h-170z" />
<glyph unicode="O" horiz-adv-x="1686" d="M380 458q0 115 38 249q95 330 340.5 529.5t537.5 199.5q230 0 365 -125t135 -345q0 -112 -37 -239q-95 -330 -343 -536t-543 -206q-104 0 -192.5 29.5t-156 87t-106 149t-38.5 207.5zM566 514q0 -177 98 -278.5t264 -101.5q71 0 145.5 21t150.5 66.5t142.5 111.5t123 163 t89.5 213q33 117 33 209q0 75 -20.5 137t-55 104.5t-82 71.5t-100 42.5t-110.5 13.5q-91 0 -185 -34t-183 -99.5t-163 -176t-114 -249.5q-33 -117 -33 -214z" />
<glyph unicode="P" horiz-adv-x="1339" d="M290 0l407 1421h469q37 0 61 -0.5t68.5 -5.5t75 -13.5t67.5 -27t59.5 -43.5t38.5 -64.5t16 -89.5q0 -63 -21 -134q-20 -69 -48.5 -126.5t-61 -101t-74.5 -78t-82.5 -57.5t-90.5 -40.5t-93.5 -27t-97.5 -15t-96 -7t-94 -1.5q-67 0 -162 7l-171 -596h-170zM674 746 q94 -8 180 -8q49 0 82.5 1t82.5 7t84.5 16.5t77 31.5t71 49.5t56.5 72t43 99.5q14 48 14 89q0 45 -19 77t-46 49t-70 27t-77 12t-81 2h-248z" />
<glyph unicode="Q" horiz-adv-x="1706" d="M379 459q0 114 38 246q63 220 198.5 387.5t313 255.5t369.5 88q129 0 226.5 -37.5t155 -104t85.5 -151t28 -185.5q0 -191 -91 -395.5t-238 -342.5l130 -179l-120 -97l-136 177q-211 -136 -454 -136q-230 0 -367.5 124.5t-137.5 349.5zM565 512q0 -181 105.5 -279.5 t275.5 -98.5q163 0 310 93l-229 298l136 108l219 -301q128 137 190 353q37 129 37 235q0 81 -22.5 145.5t-58.5 105t-85.5 67.5t-99 38t-102.5 11q-88 0 -180.5 -33t-182 -98.5t-164.5 -177t-116 -254.5q-33 -117 -33 -212z" />
<glyph unicode="R" horiz-adv-x="1438" d="M290 0l407 1421h522q44 0 78.5 -3t84.5 -16.5t83.5 -37.5t58 -71.5t24.5 -112.5q0 -67 -24 -149q-20 -71 -55.5 -135t-88.5 -122t-128.5 -100.5t-166.5 -62.5l226 -611h-190l-215 592h-275l-170 -592h-171zM674 742h245q41 0 74.5 2.5t80 11t84.5 27t76 47t67 75 t47 107.5q14 46 14 88q0 172 -250 172h-286z" />
<glyph unicode="S" horiz-adv-x="1361" d="M262 76l105 165q224 -93 368 -93q152 0 265.5 61t142.5 163q8 25 8 53q0 50 -33.5 89t-86.5 64.5t-117 48.5t-128.5 48.5t-117.5 57t-86.5 82t-33.5 115.5q0 44 14 92q49 171 236.5 291.5t433.5 120.5q164 0 337 -57l-100 -155q-164 52 -297 52q-148 0 -268.5 -63 t-148.5 -161q-7 -22 -7 -46q0 -47 33 -84t86.5 -62t117.5 -48.5t128 -51t117.5 -61t86.5 -85.5t33 -119q0 -43 -15 -96q-16 -57 -50.5 -113.5t-92.5 -112t-132 -97.5t-176 -68t-218 -26t-206 24t-198 72z" />
<glyph unicode="T" horiz-adv-x="1210" d="M449 1271l43 150h1120l-43 -150h-475l-364 -1271h-170l364 1271h-475z" />
<glyph unicode="U" horiz-adv-x="1582" d="M393 280v20q2 68 37 187l267 934h170l-264 -921q-27 -94 -27 -150q0 -62 29 -110q69 -113 262 -113q141 0 254 61.5t172 173.5q28 52 52 138l264 921h168l-266 -936q-13 -46 -25 -80.5t-39.5 -90.5t-59.5 -97.5t-86 -88.5t-118 -77.5t-156.5 -50.5t-201.5 -20 q-80 0 -145.5 11.5t-109.5 29.5t-77.5 44t-52 52t-29.5 57.5t-14.5 55.5t-3.5 50z" />
<glyph unicode="V" horiz-adv-x="1401" d="M547 1421h202l51 -1241l761 1241h187l-902 -1421h-211z" />
<glyph unicode="W" horiz-adv-x="2165" d="M547 1421h180l15 -1194l702 1194h171l28 -1194l689 1194h180l-845 -1421h-181l-33 1187l-689 -1187h-181z" />
<glyph unicode="X" horiz-adv-x="1368" d="M110 0l726 742l-259 679h206l209 -535l502 535h196l-643 -675l291 -746h-220l-227 599l-571 -599h-210z" />
<glyph unicode="Y" horiz-adv-x="1263" d="M507 1421h201l194 -587l538 587h190l-698 -748l-193 -673h-170l193 673z" />
<glyph unicode="Z" horiz-adv-x="1358" d="M155 0l32 111l1205 1160h-843l43 150h1086l-31 -109l-1223 -1162h917l-43 -150h-1143z" />
<glyph unicode="[" horiz-adv-x="758" d="M132 -410l551 1921h458l-42 -149h-294l-466 -1623h294l-43 -149h-458z" />
<glyph unicode="\" horiz-adv-x="726" d="M427 1421h170l63 -1511h-170z" />
<glyph unicode="]" horiz-adv-x="758" d="M-68 -410l43 149h294l466 1623h-294l42 149h458l-551 -1921h-458z" />
<glyph unicode="^" horiz-adv-x="1479" d="M800 1246l367 295l174 -286l-118 -88l-120 196l-237 -196z" />
<glyph unicode="_" horiz-adv-x="1160" d="M150 0l43 150h860l-43 -150h-860z" />
<glyph unicode="`" horiz-adv-x="1122" d="M694 1463l106 123l415 -310l-94 -108z" />
<glyph unicode="a" horiz-adv-x="1058" d="M184 194q0 30 9 62q20 71 67.5 123.5t109 84.5t145.5 51t167 26t185 7l22 75q16 54 16 93q0 130 -190 130q-96 0 -271 -43l3 118q179 61 334 61q160 0 230 -54t70 -153q0 -55 -21 -131l-185 -644h-116l-12 90q-150 -110 -305 -110q-117 0 -187.5 61.5t-70.5 152.5z M355 234q0 -52 47.5 -88.5t121.5 -36.5q126 0 245 97l63 218h-60q-56 0 -97.5 -2t-99 -11t-97 -25t-73.5 -47.5t-46 -74.5q-4 -13 -4 -30z" />
<glyph unicode="b" horiz-adv-x="1169" d="M185 0l434 1511h164l-171 -595q145 67 278 67q60 0 113 -15.5t100.5 -48.5t75.5 -94.5t28 -143.5q0 -85 -30 -188q-68 -238 -234.5 -375.5t-368.5 -137.5q-134 0 -242 66l-33 -46h-114zM393 154q95 -45 193 -45q45 0 89.5 9.5t95.5 35t94.5 64.5t82 102.5t61.5 144.5 q25 85 25 157q0 65 -22 111.5t-59 70t-75.5 33.5t-82.5 10q-106 0 -217 -51z" />
<glyph unicode="c" horiz-adv-x="986" d="M229 276q0 82 29 183q33 114 86.5 205t115.5 149.5t135.5 97t143 54.5t139.5 16q139 0 254 -59l-73 -118q-97 36 -201 36q-65 0 -124 -16t-119.5 -52.5t-109.5 -107.5t-78 -171q-25 -87 -25 -152q0 -64 22 -109.5t61 -70t83.5 -35.5t99.5 -11q90 0 192 32l7 -112 q-156 -55 -295 -55q-66 0 -123 14t-108.5 46t-81.5 92.5t-30 143.5z" />
<glyph unicode="d" horiz-adv-x="1174" d="M231 283q0 82 29 182q48 165 143.5 284.5t213.5 176.5t248 57q117 0 219 -53l166 581h164l-433 -1511h-114l-9 62q-160 -82 -308 -82q-62 0 -116.5 16.5t-101 50.5t-74 94.5t-27.5 141.5zM403 342q0 -65 22 -111.5t59 -70.5t76 -34.5t82 -10.5q108 0 224 54l183 639 q-92 46 -197 46q-45 0 -89.5 -9.5t-95.5 -35t-94 -65t-82.5 -105t-63.5 -149.5q-24 -86 -24 -148z" />
<glyph unicode="e" horiz-adv-x="1088" d="M229 275q0 83 27 175q39 135 109.5 240t156 167t175.5 93.5t179 31.5q267 0 267 -236q0 -91 -49 -265l-22 -76h-666q-10 -37 -10 -67q0 -95 73.5 -161t214.5 -66q99 0 230 35l-2 -111q-174 -55 -327 -55q-80 0 -142 15.5t-101.5 42t-65.5 65t-36.5 80.5t-10.5 92z M445 529h503q25 87 25 148q0 163 -172 163q-126 0 -223 -93t-133 -218z" />
<glyph unicode="f" horiz-adv-x="799" d="M-261 -493l59 120q80 -23 147 -23q58 0 104.5 16t73.5 37t48 51.5t28.5 49t13.5 39.5l297 1037h-139l37 129h139l31 106q39 137 98 209q59 73 145 112t184 39q105 0 222 -39l-60 -124q-81 26 -147 26q-58 0 -105 -17.5t-74.5 -41t-49.5 -57t-30 -54t-15 -43.5l-33 -116 h323l-37 -129h-323l-295 -1030q-37 -129 -94 -195q-58 -67 -142.5 -103.5t-183.5 -36.5q-108 0 -222 38z" />
<glyph unicode="g" horiz-adv-x="1162" d="M64 -477l80 119q107 -46 220 -46q337 0 444 379l21 73q-145 -68 -275 -68q-63 0 -119 17.5t-102.5 53t-73.5 97t-27 143.5q0 81 30 188q32 112 89.5 202t121 145t136.5 91.5t134 51t114 14.5q117 0 246 -79l37 59h115l-296 -1033q-9 -30 -18.5 -57t-34 -77.5t-54 -91.5 t-79 -89t-107.5 -80t-141.5 -54t-178.5 -22q-149 0 -282 64zM405 352q0 -108 58.5 -172.5t175.5 -64.5q107 0 225 55l179 626q-118 54 -213 54q-135 0 -246 -97t-157 -256q-22 -75 -22 -145z" />
<glyph unicode="h" horiz-adv-x="1178" d="M185 0l434 1511h164l-179 -623q199 93 349 93q239 0 239 -215q0 -78 -39 -213l-159 -553h-168l166 580q18 66 18 109q0 146 -164 146q-115 0 -279 -74l-218 -761h-164z" />
<glyph unicode="i" horiz-adv-x="524" d="M180 0l283 988h164l-283 -988h-164zM518 1232l54 189h194l-54 -189h-194z" />
<glyph unicode="j" horiz-adv-x="520" d="M-100 -410q182 78 232 256l327 1142h164l-322 -1125q-13 -46 -24 -75.5t-40 -83t-65.5 -91t-100.5 -79t-146 -68.5zM514 1232l54 189h194l-54 -189h-194z" />
<glyph unicode="k" horiz-adv-x="1061" d="M176 0l433 1511h164l-433 -1511h-164zM512 546l557 462h181l-551 -445l288 -563h-197z" />
<glyph unicode="l" horiz-adv-x="564" d="M200 0l433 1511h164l-433 -1511h-164z" />
<glyph unicode="m" horiz-adv-x="1712" d="M176 0l276 963h115l11 -82q205 101 333 101q149 0 201 -110q223 109 376 109q235 0 235 -206q0 -79 -34 -197l-165 -578h-164l168 587q17 62 17 105q0 139 -153 139q-92 0 -259 -75q-2 -56 -39 -187l-163 -569h-164l169 590q16 56 16 101q0 140 -149 140q-83 0 -246 -74 l-217 -757h-164z" />
<glyph unicode="n" horiz-adv-x="1163" d="M176 0l276 963h115l12 -84q217 104 371 104q230 0 230 -203q0 -81 -36 -205l-165 -575h-164l167 583q19 68 19 110q0 142 -165 142q-114 0 -278 -74l-218 -761h-164z" />
<glyph unicode="o" horiz-adv-x="1195" d="M236 300q0 81 26 171q67 234 237 372.5t382 138.5q160 0 255 -82.5t95 -234.5q0 -76 -25 -164q-69 -239 -243 -380t-385 -141q-159 0 -250.5 84.5t-91.5 235.5zM410 366q0 -110 59.5 -178t166.5 -68q128 0 242 97t158 252q20 69 20 131q0 115 -65.5 178.5t-162.5 63.5 q-76 0 -153.5 -37.5t-145.5 -118t-99 -188.5q-20 -71 -20 -132z" />
<glyph unicode="p" horiz-adv-x="1163" d="M23 -531l429 1494h114l9 -63q161 82 309 82q48 0 91.5 -9.5t85 -31.5t72.5 -56t49.5 -87t18.5 -119q0 -79 -30 -187q-46 -158 -138.5 -275t-212.5 -177t-252 -60q-117 0 -219 53l-162 -564h-164zM384 155q92 -46 196 -46q45 0 89.5 9.5t95.5 35t94.5 64.5t82 102.5 t61.5 144.5q25 85 25 156q0 65 -22 111.5t-59 70t-75.5 33.5t-82.5 10q-108 0 -222 -53z" />
<glyph unicode="q" horiz-adv-x="1162" d="M231 284q0 88 30 192q36 124 103.5 223.5t150 160t170.5 92t172 31.5q117 0 246 -79l37 59h115l-428 -1494h-164l166 580q-149 -69 -282 -69q-61 0 -115 16t-100.5 50t-73.5 95t-27 143zM403 343q0 -63 21 -109t57 -71t76 -36t85 -11q108 0 222 53l179 627 q-118 54 -213 54q-136 0 -246 -97t-158 -262q-23 -82 -23 -148z" />
<glyph unicode="r" horiz-adv-x="789" d="M176 0l276 963h115l10 -74q148 93 296 93q101 0 173 -39l-86 -130q-69 29 -150 29q-122 0 -248 -67l-222 -775h-164z" />
<glyph unicode="s" horiz-adv-x="1005" d="M143 55l80 122q91 -37 151 -52.5t121 -15.5q240 0 283 151q3 12 3 23q0 39 -45.5 67t-110.5 48.5t-130 45.5t-110.5 71t-45.5 111q0 32 10 66q10 35 32 71.5t64.5 77t97.5 71t138.5 50.5t180.5 20q21 0 39 -0.5t35 -2.5t28.5 -3t27 -4t22.5 -4.5t23 -6t19.5 -5.5t21 -7 t20.5 -7l-78 -124q-125 36 -221 36q-71 0 -126.5 -16.5t-85 -42t-44.5 -47.5t-21 -42q-3 -10 -3 -20q0 -32 33.5 -58.5t83.5 -44t108.5 -41t108.5 -48t83.5 -66.5t33.5 -95q0 -27 -9 -58q-12 -40 -33 -77.5t-62 -78t-95 -70.5t-137 -49.5t-182 -19.5q-150 0 -309 75z" />
<glyph unicode="t" horiz-adv-x="763" d="M259 156q0 59 25 146l153 532h-130l37 129h130l88 308h164l-88 -308h294l-37 -129h-294l-151 -528q-16 -59 -16 -92q0 -106 117 -106q28 0 155 20l-10 -111q-154 -37 -232 -37q-205 0 -205 176z" />
<glyph unicode="u" horiz-adv-x="1164" d="M251 184q0 80 36 204l165 575h164l-168 -584q-18 -59 -18 -107q0 -145 165 -145q113 0 279 75l218 761h164l-276 -963h-115l-11 83q-215 -103 -372 -103q-231 0 -231 204z" />
<glyph unicode="v" horiz-adv-x="980" d="M340 963h180l19 -804l481 804h170l-619 -963h-166z" />
<glyph unicode="w" horiz-adv-x="1654" d="M335 963h175l29 -808l480 808h157l26 -807l492 807h175l-632 -963h-161l-33 781l-477 -781h-161z" />
<glyph unicode="x" horiz-adv-x="1034" d="M75 0l477 473l-212 490h189l163 -382l372 382h175l-501 -491l206 -472h-190l-155 362l-349 -362h-175z" />
<glyph unicode="y" horiz-adv-x="1049" d="M111 -531l333 474l-119 1020h180l76 -824l523 824h170l-988 -1494h-175z" />
<glyph unicode="z" horiz-adv-x="1058" d="M146 0l25 87l739 747h-525l37 129h735l-25 -87l-741 -747h551l-37 -129h-759z" />
<glyph unicode="{" horiz-adv-x="798" d="M228 480l39 138q49 8 93.5 29t77 46.5t62.5 63t49.5 69.5t39 74.5t29 69t22.5 63t17 47.5q40 105 96.5 185.5t109 124t112 72.5t97.5 37.5t73 11.5l-7 -129q-122 -16 -220 -120q-43 -45 -77 -109t-54 -125t-49 -131t-60 -130t-87.5 -118.5t-131.5 -99.5q95 -75 95 -216 q0 -69 -29.5 -209t-29.5 -199q0 -50 14 -88q18 -48 58 -80.5t94 -39.5l-67 -129q-26 2 -53 8.5t-65.5 26.5t-67.5 50.5t-50 86.5t-21 128q0 52 12 118q4 21 16.5 76.5t19.5 99.5t7 83q0 108 -64 167q-40 37 -100 48z" />
<glyph unicode="|" horiz-adv-x="884" d="M272 -308l547 1909h164l-547 -1909h-164z" />
<glyph unicode="}" horiz-adv-x="798" d="M-32 -412l7 129q122 16 220 120q49 52 86 131t63.5 155.5t61 154.5t96.5 150t151 121q-94 74 -94 214q0 68 29.5 208t29.5 201q0 51 -14 90q-18 48 -58 80.5t-94 39.5l67 129q28 -2 56 -9t66 -27t66 -50.5t48 -86t20 -126.5q0 -63 -14 -132q-4 -19 -11 -52t-12.5 -60.5 t-9.5 -51.5q-6 -42 -6 -78q0 -99 44.5 -153t118.5 -67l-39 -138q-50 -8 -95 -29t-77.5 -47.5t-62.5 -64t-49.5 -70.5t-38.5 -75.5t-29 -71t-23 -65.5t-18 -51q-39 -102 -96.5 -180.5t-111 -121t-113.5 -70t-96 -36t-68 -10.5z" />
<glyph unicode="~" horiz-adv-x="1400" d="M716 1256q4 9 17.5 36.5t19 40t19.5 38t22.5 38.5t24 35t28.5 33t31 26t36 22t40 12.5t46 5.5q44 0 80 -18.5t59 -45.5t42.5 -54t40.5 -45.5t44 -18.5q12 0 23.5 3.5t22 11t19 15t18 21t15.5 23t15 27.5t13.5 27.5l13.5 28.5t13 27l103 -17q-4 -9 -17.5 -36.5t-19.5 -40 t-19.5 -38.5t-22.5 -39t-24.5 -35t-28 -33.5t-31 -26.5t-36.5 -22t-40 -12.5t-46 -5.5q-44 0 -80 18.5t-59 45.5t-42.5 54t-40.5 45.5t-44 18.5q-12 0 -23.5 -3t-22 -11t-19 -15t-18 -21t-15 -22.5t-15 -27t-13.5 -26.5t-13 -28t-12 -26z" />
<glyph unicode="&#xa1;" horiz-adv-x="650" d="M122 -410l365 1273h170l-365 -1273h-170zM546 1121l58 200h200l-58 -200h-200z" />
<glyph unicode="&#xa2;" horiz-adv-x="1021" d="M325 532q0 82 29 181q62 217 204 356t339 167l79 275h121l-77 -270q107 0 225 -58l-74 -120q-100 38 -206 38q-165 0 -279 -91.5t-163 -262.5q-24 -83 -24 -152q0 -66 23 -114t63.5 -73t86.5 -36.5t100 -11.5q92 0 196 33l7 -113q-144 -51 -245 -51l-85 -294h-121l85 294 q-131 16 -207.5 91t-76.5 212z" />
<glyph unicode="&#xa3;" d="M152 0l39 135h244l151 527h-176l39 135h176l40 141q33 114 87.5 202t117 142t138 88.5t144 47.5t140.5 13q117 0 224 -38l-83 -122q-82 24 -158 24t-140 -17t-109 -49t-79.5 -68t-59 -83.5t-39 -84.5t-27.5 -82l-32 -114h530l-39 -135h-530l-151 -527h588l-39 -135h-996z " />
<glyph unicode="&#xa4;" d="M301 402l214 166q-13 39 -13 82q0 138 112 265l-119 167l161 125l119 -167q94 47 187 47q94 0 159 -47l214 165l89 -125l-214 -165q11 -36 11 -80q0 -143 -110 -266l118 -165l-161 -125l-118 165q-94 -48 -187 -48t-159 47l-214 -166zM654 684q0 -64 41 -105.5t108 -41.5 q82 0 158 60t100 144q9 30 9 58q0 65 -41.5 106t-107.5 41q-82 0 -158 -60t-101 -145q-8 -27 -8 -57z" />
<glyph unicode="&#xa5;" d="M359 249l36 125h275l58 200h-275l35 125h268l-206 722h185l150 -603l504 603h175l-634 -722h282l-35 -125h-289l-58 -200h289l-36 -125h-289l-71 -249h-160l71 249h-275z" />
<glyph unicode="&#xa6;" horiz-adv-x="884" d="M272 -308l220 768h164l-220 -768h-164zM600 837l219 764h164l-219 -764h-164z" />
<glyph unicode="&#xa7;" horiz-adv-x="1136" d="M173 45l81 124q154 -60 287 -60q276 0 327 177q4 13 4 29q0 38 -35 67t-87.5 46t-113.5 39.5t-113.5 46t-87.5 67.5t-35 102q0 30 11 69q30 107 143 192q-46 49 -46 115q0 32 10 68q14 50 51.5 100.5t100.5 98.5t165 78t227 30q28 0 52.5 -1t47 -4t37 -5t35.5 -7.5 t28.5 -7.5t30.5 -9.5t28 -8.5l-83 -131q-114 39 -240 39q-108 0 -191.5 -40t-103.5 -111q-4 -12 -4 -27q0 -38 35.5 -68.5t89 -50.5t116 -45t116 -50.5t89 -68.5t35.5 -98q0 -26 -9 -58q-34 -122 -144 -208q44 -47 44 -109q0 -27 -9 -59q-12 -43 -35 -84.5t-67.5 -86.5 t-102.5 -78t-146 -55t-193 -22h-13q-185 0 -332 65zM591 743q0 -28 18 -51t53 -41.5t69.5 -32t86.5 -32t84 -32.5q56 43 74 108q4 15 4 30q0 29 -17.5 51t-52.5 39t-68.5 29t-85 29t-83.5 30q-62 -41 -78 -99q-4 -13 -4 -28z" />
<glyph unicode="&#xa8;" horiz-adv-x="1200" d="M637 1235l53 186h185l-53 -186h-185zM1086 1235l53 186h185l-53 -186h-185z" />
<glyph unicode="&#xa9;" horiz-adv-x="1760" d="M339 496q0 96 27 187q53 183 190.5 343t329.5 257t390 97q243 0 390 -144.5t147 -365.5q0 -96 -27 -187q-40 -139 -132 -267t-213.5 -222.5t-270 -151t-294.5 -56.5q-243 0 -390 144.5t-147 365.5zM477 532q0 -180 119.5 -297t317.5 -117q158 0 313.5 77t269 207 t156.5 281q22 76 22 151q0 180 -119.5 297t-317.5 117q-158 0 -313.5 -77t-269 -207t-156.5 -281q-22 -76 -22 -151zM732 540q0 62 21 133q29 103 81.5 180t116 119.5t128 62.5t130.5 20q104 0 188 -43l-55 -87q-72 28 -150 28q-48 0 -91.5 -12t-88 -39t-80.5 -80t-58 -128 q-18 -64 -18 -112q0 -90 54.5 -128t140.5 -38q67 0 144 24l7 -82q-112 -39 -216 -39q-49 0 -91 10.5t-80.5 34.5t-60.5 69t-22 107z" />
<glyph unicode="&#xaa;" horiz-adv-x="759" d="M425 863q0 22 8 52q32 112 122.5 149.5t272.5 37.5l7 23q8 29 8 50q0 84 -109 84q-80 0 -174 -27l2 71q108 36 207 36q181 0 181 -125q0 -28 -15 -83l-107 -371h-70l-6 54q-87 -72 -168 -72q-73 0 -116 31.5t-43 89.5zM528 896q0 -31 24.5 -52.5t69.5 -21.5q74 0 149 80 l34 117h-28q-43 0 -73.5 -2.5t-70.5 -11.5t-66 -31.5t-36 -56.5q-3 -11 -3 -21z" />
<glyph unicode="&#xab;" horiz-adv-x="936" d="M254 623l359 365h185l-378 -365l169 -365h-185zM625 623l359 365h185l-378 -365l169 -365h-185z" />
<glyph unicode="&#xac;" horiz-adv-x="1400" d="M292 583l43 149h1150l-129 -450h-148l86 301h-1002z" />
<glyph unicode="&#xad;" horiz-adv-x="1074" d="M389 589l40 139h634l-40 -139h-634z" />
<glyph unicode="&#xae;" horiz-adv-x="1232" d="M369 904q0 70 20 139q40 141 145.5 260.5t247 188.5t282.5 69q178 0 288 -106t110 -271q0 -68 -21 -141q-40 -141 -145.5 -260.5t-246.5 -188.5t-282 -69q-180 0 -289 107.5t-109 271.5zM484 934q0 -129 86 -213.5t228 -84.5q173 0 328.5 120.5t203.5 286.5q16 55 16 109 q0 129 -86 213.5t-228 84.5q-173 0 -328.5 -120t-203.5 -287q-16 -55 -16 -109zM650 776l156 544h222q23 0 38.5 -2t39 -8.5t38.5 -25t21 -47.5q2 -14 2 -22q0 -37 -15.5 -78.5t-53.5 -82t-91 -56.5l49 -222h-100l-42 208h-112l-59 -208h-93zM824 1061q47 0 63 -0.5t28 -0.5 q127 0 152 87q5 20 5 32q0 61 -100 61h-96z" />
<glyph unicode="&#xaf;" horiz-adv-x="1400" d="M713 1491l42 149h830l-42 -149h-830z" />
<glyph unicode="&#xb0;" horiz-adv-x="589" d="M420 1172q0 30 9 63q27 93 110 158.5t173 65.5q73 0 119 -45.5t46 -116.5q0 -29 -9 -62q-27 -94 -110 -159.5t-173 -65.5q-73 0 -119 45.5t-46 116.5zM513 1197q0 -41 26 -68.5t72 -27.5q54 0 102 40.5t63 93.5q6 19 6 38q0 41 -25.5 68t-69.5 27q-55 0 -104 -39.5 t-64 -93.5q-6 -19 -6 -38z" />
<glyph unicode="&#xb1;" horiz-adv-x="1400" d="M263 150l39 137h960l-39 -137h-960zM470 872l39 137h407l118 412h146l-118 -412h407l-39 -137h-407l-118 -411h-146l118 411h-407z" />
<glyph unicode="&#xb2;" horiz-adv-x="800" d="M364 758l19 65q49 82 115.5 153.5t126 117.5t114 84t91 71.5t44.5 61.5q3 11 3 22q0 37 -32 62.5t-84 25.5q-58 0 -201 -51l-11 91q143 63 258 63q88 0 142 -40.5t54 -108.5q0 -25 -7 -50q-15 -51 -53.5 -96.5t-90 -83.5t-106 -76t-113.5 -92t-100 -114h343l-30 -105 h-482z" />
<glyph unicode="&#xb3;" horiz-adv-x="800" d="M353 794l60 96q103 -31 163 -31q72 0 133 36.5t77 92.5q5 16 5 34q0 30 -18 49.5t-50 28t-60.5 11.5t-66.5 3l30 103q112 0 163.5 32t63.5 75q3 10 3 20q0 30 -26.5 50t-76.5 20q-71 0 -183 -46l-12 94q138 59 237 59q90 0 136 -40t46 -101q0 -56 -36.5 -111.5 t-99.5 -89.5q75 -35 75 -120q0 -50 -27.5 -104t-75 -99.5t-119.5 -75.5t-152 -30q-95 0 -189 44z" />
<glyph unicode="&#xb4;" horiz-adv-x="1122" d="M640 1275l592 310l35 -123l-596 -295z" />
<glyph unicode="&#xb5;" horiz-adv-x="1174" d="M68 -410l393 1373h164l-155 -542q-23 -84 -23 -141q0 -168 171 -168q87 0 262 75l222 776h164l-276 -963h-115l-10 67q-169 -94 -313 -94q-123 0 -188 80l-132 -463h-164z" />
<glyph unicode="&#xb6;" horiz-adv-x="1338" d="M429 972q0 71 26 161q17 61 43.5 111.5t55.5 87t67.5 65.5t71.5 47.5t76.5 32t74.5 20t72 10t63.5 4t54.5 0.5h547l-433 -1511h-170l390 1361h-240l-390 -1361h-171l197 686q-40 0 -79.5 6t-87.5 24.5t-83.5 48.5t-60 83.5t-24.5 123.5z" />
<glyph unicode="&#xb7;" horiz-adv-x="590" d="M370 628l60 210h210l-60 -210h-210z" />
<glyph unicode="&#xb8;" horiz-adv-x="1101" d="M258 -446l52 91q144 -47 193 -47q46 0 79.5 22.5t42.5 54.5q3 12 3 21q0 12 -4 21.5t-14.5 17.5t-20 14t-30 14t-35 12.5t-44 14t-47.5 15.5l120 217h127l-85 -157l14 -5q14 -4 19 -6t19.5 -7.5t21.5 -10t19.5 -12.5t19 -17t14 -20t10.5 -24.5t3 -29.5q0 -23 -7 -47 q-21 -71 -92 -127t-165 -56q-21 0 -44.5 3.5t-50 10.5t-42 11.5t-44 14.5t-32.5 11z" />
<glyph unicode="&#xb9;" horiz-adv-x="543" d="M448 760l184 643l-156 -41l2 97l206 52h92l-215 -751h-113z" />
<glyph unicode="&#xba;" horiz-adv-x="751" d="M366 972q0 77 28 174q52 179 171.5 276t245.5 97q40 0 75 -9t71.5 -30.5t58 -66.5t21.5 -110q0 -72 -25 -158q-52 -182 -170.5 -287.5t-252.5 -105.5q-100 0 -161.5 52t-61.5 168zM485 1003q0 -84 39.5 -117.5t95.5 -33.5q35 0 69.5 12.5t73.5 42t74 90t60 145.5 q21 73 21 129q0 81 -40.5 113t-98.5 32q-36 0 -71.5 -12.5t-73 -41t-70.5 -83t-55 -130.5q-24 -83 -24 -146z" />
<glyph unicode="&#xbb;" horiz-adv-x="936" d="M124 258l379 365l-170 365h186l150 -365l-360 -365h-185zM495 258l379 365l-170 365h186l150 -365l-360 -365h-185z" />
<glyph unicode="&#xbc;" horiz-adv-x="1800" d="M359 0l1228 1421h175l-1227 -1421h-176zM497 618l193 673l-151 -39l4 117l205 52h112l-230 -803h-133zM1081 195l25 89l525 552h157l-153 -531h107l-31 -110h-107l-56 -195h-133l56 195h-390zM1261 305h241l110 383z" />
<glyph unicode="&#xbd;" horiz-adv-x="1847" d="M359 0l1228 1421h175l-1227 -1421h-176zM494 608l196 683l-151 -39l4 117l205 52h112l-233 -813h-133zM1156 0l21 72q54 90 127 168.5t138.5 129t125 92.5t100 78.5t49.5 67.5q3 12 3 24q0 40 -34.5 68t-92.5 28q-65 0 -220 -55l-13 100q162 69 283 69q97 0 157 -44.5 t60 -118.5q0 -30 -8 -55q-16 -56 -58.5 -106t-99.5 -92t-117 -84t-125 -101t-110 -125h378l-33 -116h-531z" />
<glyph unicode="&#xbe;" horiz-adv-x="1950" d="M380 650l68 106q118 -35 179 -35q78 0 145 39.5t85 101.5q6 21 6 37q0 103 -215 103l33 113q123 0 180 35.5t70 82.5q3 11 3 21q0 34 -29 56t-83 22q-79 0 -202 -51l-14 104q152 65 262 65q98 0 148.5 -44t50.5 -111q0 -62 -40 -123.5t-109 -98.5q83 -39 83 -127 q0 -27 -10 -64q-36 -125 -150 -203t-253 -78q-100 0 -208 49zM519 0l1228 1421h175l-1227 -1421h-176zM1231 195l25 89l525 552h157l-153 -531h107l-31 -110h-107l-56 -195h-133l56 195h-390zM1411 305h241l110 383z" />
<glyph unicode="&#xbf;" horiz-adv-x="1047" d="M113 -53l87 122q150 -69 265 -69q128 0 220.5 66.5t118.5 158.5q10 34 10 63q0 43 -22.5 80t-54 68.5t-63.5 68.5t-54.5 98t-22.5 139q0 108 40 246h170q-30 -106 -30 -186q0 -69 22 -123t53.5 -89.5t62.5 -68.5t53 -76.5t22 -97.5q0 -48 -17 -106 q-30 -105 -123.5 -195.5t-201 -138.5t-197.5 -48q-104 0 -181 22t-157 66zM689 1220l57 201h200l-57 -201h-200z" />
<glyph unicode="&#xc0;" horiz-adv-x="1383" d="M130 0l912 1421h193l98 -1421h-172l-26 413h-586l-262 -413h-157zM643 562h483l-42 693zM974 1806l105 123l415 -310l-93 -108z" />
<glyph unicode="&#xc1;" horiz-adv-x="1383" d="M130 0l912 1421h193l98 -1421h-172l-26 413h-586l-262 -413h-157zM643 562h483l-42 693zM894 1619l593 310l35 -123l-597 -295z" />
<glyph unicode="&#xc2;" horiz-adv-x="1383" d="M130 0l912 1421h193l98 -1421h-172l-26 413h-586l-262 -413h-157zM643 562h483l-42 693zM936 1629l367 295l174 -286l-119 -88l-119 196l-237 -195z" />
<glyph unicode="&#xc3;" horiz-adv-x="1383" d="M130 0l912 1421h193l98 -1421h-172l-26 413h-586l-262 -413h-157zM643 562h483l-42 693zM844 1589q4 9 17.5 36.5t19 40t19.5 38t22.5 38.5t24 35t28.5 33t31 26t36 22t40 12.5t46 5.5q44 0 80 -18.5t59 -45t42.5 -53t40.5 -45t44 -18.5q16 0 29.5 5t27 18t22.5 22 t21.5 31.5t17.5 32.5t18.5 38t16.5 35l103 -17q-4 -9 -17.5 -36.5t-19 -40t-19.5 -38t-22.5 -38.5t-24 -35t-28.5 -33t-31 -26t-36 -22t-40 -12.5t-46 -5.5q-44 0 -80 18.5t-59 45t-42.5 53t-40.5 45t-44 18.5q-14 0 -27 -5t-23 -11t-21.5 -20t-18 -23t-17.5 -28.5 t-15.5 -29t-15.5 -33t-15 -30.5z" />
<glyph unicode="&#xc4;" horiz-adv-x="1383" d="M130 0l912 1421h193l98 -1421h-172l-26 413h-586l-262 -413h-157zM643 562h483l-42 693zM907 1712l53 185h185l-53 -185h-185zM1355 1712l53 185h185l-53 -185h-185z" />
<glyph unicode="&#xc5;" horiz-adv-x="1383" d="M130 0l889 1385q-95 50 -95 160q0 56 27 114t72 105.5t110.5 78t136.5 30.5q89 0 145.5 -52.5t56.5 -134.5q0 -34 -10 -68q-22 -77 -83.5 -140.5t-140.5 -94.5l95 -1383h-172l-26 413h-586l-262 -413h-157zM643 562h483l-42 693zM1036 1576q0 -48 31.5 -79.5t87.5 -31.5 q65 0 121.5 46t74.5 107q6 21 6 41q0 47 -31 78.5t-84 31.5q-67 0 -124.5 -44.5t-75.5 -106.5q-6 -21 -6 -42z" />
<glyph unicode="&#xc6;" horiz-adv-x="1915" d="M130 0l962 1421h1070l-43 -150h-618l-133 -464h563l-43 -150h-563l-145 -507h618l-43 -150h-788l119 414h-515l-279 -414h-162zM671 562h457l203 709h-183z" />
<glyph unicode="&#xc7;" horiz-adv-x="1451" d="M442 481q0 126 43 259.5t127 256.5t197 220t266 155.5t321 58.5q194 0 365 -76l-93 -141q-175 67 -320 67q-120 0 -236 -47.5t-206.5 -127t-157.5 -182t-99 -214.5q-26 -92 -26 -173q0 -179 113.5 -290t320.5 -111q154 0 338 60l16 -126q-235 -90 -442 -90h-28l-62 -115 l9 -3q8 -2 14.5 -4t18.5 -6.5t21 -10t20.5 -13t20 -17t16 -21t11.5 -26.5t4 -32q0 -24 -7 -48q-22 -77 -97 -133.5t-169 -56.5q-37 0 -73 8t-150 45l60 104q150 -50 201 -50q43 0 73.5 21t38.5 50q3 12 3 21q0 8 -2.5 15t-8 13.5t-12 11.5t-18 10.5t-22 9.5t-28 10 t-31.5 10.5t-38 12t-42 13.5l112 199q-180 42 -271 172t-91 311z" />
<glyph unicode="&#xc8;" horiz-adv-x="1283" d="M290 0l407 1421h833l-43 -150h-663l-133 -464h608l-43 -150h-608l-145 -507h663l-43 -150h-833zM926 1806l106 123l415 -310l-94 -108z" />
<glyph unicode="&#xc9;" horiz-adv-x="1283" d="M290 0l407 1421h833l-43 -150h-663l-133 -464h608l-43 -150h-608l-145 -507h663l-43 -150h-833zM912 1619l593 310l35 -123l-597 -295z" />
<glyph unicode="&#xca;" horiz-adv-x="1283" d="M290 0l407 1421h833l-43 -150h-663l-133 -464h608l-43 -150h-608l-145 -507h663l-43 -150h-833zM907 1637l367 295l174 -286l-119 -88l-119 196l-237 -195z" />
<glyph unicode="&#xcb;" horiz-adv-x="1283" d="M290 0l407 1421h833l-43 -150h-663l-133 -464h608l-43 -150h-608l-145 -507h663l-43 -150h-833zM881 1713l53 185h185l-53 -185h-185zM1329 1713l53 185h185l-53 -185h-185z" />
<glyph unicode="&#xcc;" horiz-adv-x="730" d="M320 0l407 1421h170l-407 -1421h-170zM653 1804l107 123l415 -310l-94 -106z" />
<glyph unicode="&#xcd;" horiz-adv-x="730" d="M320 0l407 1421h170l-407 -1421h-170zM516 1620l592 310l35 -123l-597 -296z" />
<glyph unicode="&#xce;" horiz-adv-x="730" d="M320 0l407 1421h170l-407 -1421h-170zM577 1629l367 295l174 -286l-120 -88l-118 196l-237 -195z" />
<glyph unicode="&#xcf;" horiz-adv-x="670" d="M290 0l407 1421h170l-407 -1421h-170zM558 1639l53 185h185l-53 -185h-185zM947 1639l53 185h185l-53 -185h-185z" />
<glyph unicode="&#xd0;" horiz-adv-x="1605" d="M306 658l43 150h218l175 613h435q42 0 79.5 -2t98 -11.5t110 -26t103.5 -49t91 -76.5t61.5 -112t24.5 -152q0 -105 -38 -238q-43 -149 -109 -268.5t-137 -196.5t-160.5 -134t-164 -86t-164 -45.5t-145 -20t-121.5 -3.5h-371l189 658h-218zM548 150h207q45 0 83 2t90 9 t96.5 18.5t97 33t97 50.5t91 72.5t84.5 97.5t72.5 127.5t59.5 159.5q30 103 30 196q0 58 -12 108t-41.5 96.5t-75 79t-118 52t-164.5 19.5h-276l-132 -463h256l-43 -150h-256z" />
<glyph unicode="&#xd1;" horiz-adv-x="1659" d="M290 0l407 1421h215l434 -1189l340 1189h170l-407 -1421h-215l-432 1191l-342 -1191h-170zM988 1589q2 4 21.5 45.5t25 51.5t25.5 45.5t31 47.5t34 36.5t42.5 34t46.5 18t57 8.5q44 0 80 -18.5t59 -45t42.5 -53t40.5 -45t44 -18.5q14 0 27 5t23 11.5t21.5 20t18.5 23 t18 29.5t15.5 29.5t15.5 33t15 30.5l103 -17q-4 -8 -17.5 -36.5t-19 -40t-19.5 -38t-22.5 -39t-24.5 -34.5t-28.5 -33t-31 -26t-36.5 -22t-40 -12.5t-46 -5.5q-44 0 -80 18.5t-59 45t-42.5 53t-40.5 45t-44 18.5q-16 0 -29.5 -5t-26.5 -17.5t-22 -22.5t-21 -31.5t-18 -32.5 t-18.5 -37.5t-16.5 -35.5z" />
<glyph unicode="&#xd2;" horiz-adv-x="1686" d="M380 458q0 115 38 249q95 330 340.5 529.5t537.5 199.5q230 0 365 -125t135 -345q0 -112 -37 -239q-95 -330 -343 -536t-543 -206q-104 0 -192.5 29.5t-156 87t-106 149t-38.5 207.5zM566 514q0 -177 98 -278.5t264 -101.5q71 0 145.5 21t150.5 66.5t142.5 111.5t123 163 t89.5 213q32 113 32 208q0 93 -30.5 166t-83 116.5t-117.5 65.5t-139 22q-70 0 -143.5 -20.5t-149 -65t-141 -108.5t-121 -158t-87.5 -207q-33 -117 -33 -214zM1185 1809l106 123l415 -310l-94 -108z" />
<glyph unicode="&#xd3;" horiz-adv-x="1686" d="M380 458q0 115 38 249q95 330 340.5 529.5t537.5 199.5q230 0 365 -125t135 -345q0 -112 -37 -239q-95 -330 -343 -536t-543 -206q-104 0 -192.5 29.5t-156 87t-106 149t-38.5 207.5zM566 514q0 -177 98 -278.5t264 -101.5q71 0 145.5 21t150.5 66.5t142.5 111.5t123 163 t89.5 213q32 113 32 208q0 93 -30.5 166t-83 116.5t-117.5 65.5t-139 22q-70 0 -143.5 -20.5t-149 -65t-141 -108.5t-121 -158t-87.5 -207q-33 -117 -33 -214zM1068 1620l592 310l35 -123l-597 -296z" />
<glyph unicode="&#xd4;" horiz-adv-x="1686" d="M380 458q0 115 38 249q95 330 340.5 529.5t537.5 199.5q230 0 365 -125t135 -345q0 -112 -37 -239q-95 -330 -343 -536t-543 -206q-104 0 -192.5 29.5t-156 87t-106 149t-38.5 207.5zM566 514q0 -177 98 -278.5t264 -101.5q71 0 145.5 21t150.5 66.5t142.5 111.5t123 163 t89.5 213q32 113 32 208q0 93 -30.5 166t-83 116.5t-117.5 65.5t-139 22q-70 0 -143.5 -20.5t-149 -65t-141 -108.5t-121 -158t-87.5 -207q-33 -117 -33 -214zM1097 1629l367 295l174 -286l-119 -88l-119 196l-237 -195z" />
<glyph unicode="&#xd5;" horiz-adv-x="1686" d="M380 458q0 115 38 249q95 330 340.5 529.5t537.5 199.5q230 0 365 -125t135 -345q0 -112 -37 -239q-95 -330 -343 -536t-543 -206q-104 0 -192.5 29.5t-156 87t-106 149t-38.5 207.5zM566 514q0 -177 98 -278.5t264 -101.5q71 0 145.5 21t150.5 66.5t142.5 111.5t123 163 t89.5 213q32 113 32 209q0 181 -106.5 275t-263.5 94q-70 0 -143.5 -20.5t-149 -65t-141 -108.5t-121 -158t-87.5 -207q-33 -117 -33 -214zM1005 1589q4 9 17.5 36.5t19 40t19.5 38t22.5 38.5t24 35t28.5 33t31 26t36 22t40 12.5t46 5.5q44 0 80 -18.5t59 -45t42.5 -53 t40.5 -45t44 -18.5q16 0 29.5 5t27 18t22.5 22t21.5 31.5t17.5 32.5t18.5 38t16.5 35l103 -17q-4 -8 -17.5 -36.5t-19 -40t-19.5 -38t-22.5 -39t-24.5 -34.5t-28.5 -33t-31 -26t-36.5 -22t-40 -12.5t-46 -5.5q-44 0 -80 18.5t-59 45t-42.5 53t-40.5 45t-44 18.5 q-16 0 -29.5 -5t-26.5 -17.5t-22 -22.5t-21 -31.5t-18 -32.5t-18.5 -37.5t-16.5 -35.5z" />
<glyph unicode="&#xd6;" horiz-adv-x="1686" d="M380 458q0 115 38 249q95 330 340.5 529.5t537.5 199.5q230 0 365 -125t135 -345q0 -112 -37 -239q-95 -330 -343 -536t-543 -206q-104 0 -192.5 29.5t-156 87t-106 149t-38.5 207.5zM566 514q0 -177 98 -278.5t264 -101.5q71 0 145.5 21t150.5 66.5t142.5 111.5t123 163 t89.5 213q32 113 32 208q0 93 -30.5 166t-83 116.5t-117.5 65.5t-139 22q-70 0 -143.5 -20.5t-149 -65t-141 -108.5t-121 -158t-87.5 -207q-33 -117 -33 -214zM1067 1713l53 185h185l-53 -185h-185zM1516 1713l53 185h185l-53 -185h-185z" />
<glyph unicode="&#xd7;" horiz-adv-x="1299" d="M268 299l457 355l-248 346l135 105l257 -361l456 355l75 -106l-455 -354l247 -347l-135 -105l-258 361l-455 -354z" />
<glyph unicode="&#xd8;" horiz-adv-x="1756" d="M174 70l243 182q-37 89 -37 205q0 119 38 250q95 330 340.5 529.5t537.5 199.5q137 0 251 -50.5t179 -152.5l234 176l44 -65l-243 -182q34 -89 34 -196q0 -116 -36 -239q-95 -330 -343 -536t-543 -206q-60 0 -115 10t-93.5 24t-74.5 36.5t-56 38t-41 39t-25.5 30 l-13.5 19.5l-238 -177zM566 513q0 -75 18 -136l982 737q-46 84 -130.5 128.5t-191.5 44.5q-91 0 -185 -34t-183 -99.5t-163 -176t-114 -249.5q-33 -112 -33 -215zM615 302q46 -82 127.5 -125t185.5 -43q71 0 145.5 21t150.5 66.5t142.5 111.5t123 163t89.5 213 q33 117 33 210q0 62 -15 119z" />
<glyph unicode="&#xd9;" horiz-adv-x="1580" d="M392 280q0 78 36 203l269 938h170l-264 -921q-26 -95 -26 -152q0 -221 289 -221q107 0 190.5 29.5t138.5 83.5t90 117t58 143l264 921h170l-269 -938q-10 -36 -18 -60t-25.5 -67t-36 -74.5t-50 -73t-66.5 -71.5t-86.5 -61.5t-109.5 -51t-135 -32t-164 -12.5 q-425 0 -425 300zM1070 1804l107 123l415 -310l-94 -106z" />
<glyph unicode="&#xda;" horiz-adv-x="1580" d="M392 280q0 78 36 203l269 938h170l-264 -921q-26 -95 -26 -152q0 -221 289 -221q107 0 190.5 29.5t138.5 83.5t90 117t58 143l264 921h170l-269 -938q-10 -36 -18 -60t-25.5 -67t-36 -74.5t-50 -73t-66.5 -71.5t-86.5 -61.5t-109.5 -51t-135 -32t-164 -12.5 q-425 0 -425 300zM1025 1620l592 310l35 -123l-597 -296z" />
<glyph unicode="&#xdb;" horiz-adv-x="1580" d="M392 280q0 78 36 203l269 938h170l-264 -921q-26 -95 -26 -152q0 -221 289 -221q107 0 190.5 29.5t138.5 83.5t90 117t58 143l264 921h170l-269 -938q-10 -36 -18 -60t-25.5 -67t-36 -74.5t-50 -73t-66.5 -71.5t-86.5 -61.5t-109.5 -51t-135 -32t-164 -12.5 q-425 0 -425 300zM1029 1629l367 295l174 -286l-120 -88l-118 196l-237 -195z" />
<glyph unicode="&#xdc;" horiz-adv-x="1580" d="M392 280q0 78 36 203l269 938h170l-264 -921q-26 -95 -26 -152q0 -221 289 -221q107 0 190.5 29.5t138.5 83.5t90 117t58 143l264 921h170l-269 -938q-10 -36 -18 -60t-25.5 -67t-36 -74.5t-50 -73t-66.5 -71.5t-86.5 -61.5t-109.5 -51t-135 -32t-164 -12.5 q-425 0 -425 300zM1004 1713l53 185h185l-53 -185h-185zM1453 1713l53 185h185l-53 -185h-185z" />
<glyph unicode="&#xdd;" horiz-adv-x="1263" d="M507 1421h201l194 -587l538 587h190l-698 -748l-193 -673h-170l193 673zM832 1620l592 310l35 -123l-597 -296z" />
<glyph unicode="&#xde;" horiz-adv-x="1326" d="M290 0l407 1421h170l-78 -274q134 13 273 13q94 0 166.5 -11.5t131.5 -38.5t90.5 -76.5t31.5 -120.5q0 -55 -19 -122q-14 -49 -35.5 -97t-56.5 -101.5t-78.5 -97.5t-105 -81t-132.5 -56q-119 -32 -338 -32q-81 0 -162 6l-95 -332h-170zM598 483q108 -9 193 -9h28 q39 0 66 1t72 7t78 16t73.5 31t70 49.5t57 73t43.5 100.5q13 45 13 82q0 46 -20.5 79t-50.5 51t-76.5 28.5t-85 13t-88.5 2.5q-116 0 -225 -10z" />
<glyph unicode="&#xdf;" horiz-adv-x="1251" d="M195 0l293 1023q25 86 68.5 156t95.5 116t112.5 77t118 44.5t113.5 13.5q130 0 195 -71t65 -173q0 -44 -12 -85q-19 -65 -60 -117t-88.5 -85t-93.5 -61t-81.5 -59.5t-45.5 -66.5q-4 -13 -4 -28q0 -31 25.5 -55t64 -38t83 -34t83 -42t64 -63.5t25.5 -97.5q0 -40 -15 -93 q-9 -33 -27 -68t-52 -75.5t-78 -71.5t-110.5 -51.5t-144.5 -20.5q-144 0 -289 47l63 116q148 -31 230 -31q191 0 234 152q7 24 7 46q0 39 -25 68t-62 44.5t-81 34.5t-81 38t-62 55.5t-25 85.5q0 33 12 75q17 61 58 109t88 79t93.5 59t83.5 63t49 76q7 24 7 48 q0 63 -45 103.5t-108 40.5q-19 0 -41.5 -4t-59 -20.5t-68.5 -43t-64 -77t-51 -116.5l-293 -1022h-164z" />
<glyph unicode="&#xe0;" horiz-adv-x="1058" d="M184 194q0 30 9 62q20 71 67.5 123.5t109 84t145.5 51t167 26t185 6.5l22 76q16 54 16 93q0 130 -190 130q-96 0 -271 -43l3 118q176 60 333 60q161 0 230.5 -53.5t69.5 -152.5q0 -60 -22 -135l-183 -640h-116l-12 90q-150 -110 -305 -110q-117 0 -187.5 61.5 t-70.5 152.5zM356 234q0 -52 47 -88.5t121 -36.5q126 0 245 97l63 218h-60q-56 0 -97.5 -2t-98.5 -11t-96.5 -25t-73.5 -47.5t-46 -74.5q-4 -13 -4 -30zM757 1425l122 114l260 -339l-110 -105z" />
<glyph unicode="&#xe1;" horiz-adv-x="1058" d="M184 194q0 30 9 62q20 71 67.5 123.5t109 84t145.5 51t167 26t185 6.5l22 76q16 54 16 93q0 130 -190 130q-96 0 -271 -43l3 118q176 60 333 60q161 0 230.5 -53.5t69.5 -152.5q0 -60 -22 -135l-183 -640h-116l-12 90q-150 -110 -305 -110q-117 0 -187.5 61.5 t-70.5 152.5zM356 234q0 -52 47 -88.5t121 -36.5q126 0 245 97l63 218h-60q-56 0 -97.5 -2t-98.5 -11t-96.5 -25t-73.5 -47.5t-46 -74.5q-4 -13 -4 -30zM655 1210l452 339l58 -114l-462 -329z" />
<glyph unicode="&#xe2;" horiz-adv-x="1058" d="M184 194q0 30 9 62q20 71 67.5 123.5t109 84t145.5 51t167 26t185 6.5l22 76q16 54 16 93q0 130 -190 130q-96 0 -271 -43l3 118q176 60 333 60q161 0 230.5 -53.5t69.5 -152.5q0 -60 -22 -135l-183 -640h-116l-12 90q-150 -110 -305 -110q-117 0 -187.5 61.5 t-70.5 152.5zM356 234q0 -52 47 -88.5t121 -36.5q126 0 245 97l63 218h-60q-56 0 -97.5 -2t-98.5 -11t-96.5 -25t-73.5 -47.5t-46 -74.5q-4 -13 -4 -30zM597 1180l365 310l165 -301l-119 -92l-112 206l-236 -205z" />
<glyph unicode="&#xe3;" horiz-adv-x="1057" d="M184 194q0 30 9 62q20 71 67.5 123.5t109 84t145.5 51t167 26t185 6.5l22 76q16 54 16 93q0 130 -190 130q-96 0 -271 -43l3 118q176 60 333 60q161 0 230.5 -53.5t69.5 -152.5q0 -60 -22 -135l-183 -640h-116l-12 90q-150 -110 -305 -110q-117 0 -187.5 61.5 t-70.5 152.5zM356 234q0 -52 47 -88.5t121 -36.5q126 0 245 97l63 218h-60q-56 0 -97.5 -2t-98.5 -11t-96.5 -25t-73.5 -47.5t-46 -74.5q-4 -13 -4 -30zM508 1147l42 88q13 28 19.5 41t31.5 50t48 58t61.5 39.5t80.5 18.5q43 0 78 -19.5t57 -47t40.5 -55t39.5 -47t43 -19.5 q10 0 20.5 3.5t19 8t17.5 13t15.5 15.5t14 18t12 18.5t10.5 19t8 16.5t6 14l5 10l25 54l103 -17l-42 -87q-45 -92 -87 -136q-68 -72 -154 -72q-43 0 -78 19.5t-57.5 47t-41.5 55t-39.5 47t-42.5 19.5q-12 0 -23 -3.5t-21 -11t-18.5 -15t-16.5 -19t-13.5 -20t-12 -21 t-9.5 -18.5t-8 -16.5t-5 -11.5l-24 -52z" />
<glyph unicode="&#xe4;" horiz-adv-x="1062" d="M184 195q0 29 9 61q20 71 67.5 123.5t109.5 84t147 51t168 26t186 6.5l22 76q16 54 16 92q0 131 -192 131q-98 0 -273 -43l3 118q177 60 335 60q162 0 232.5 -54t70.5 -153q0 -59 -22 -134l-184 -640h-116l-12 90q-150 -110 -306 -110q-118 0 -189.5 62t-71.5 153z M356 234q0 -52 47.5 -88.5t122.5 -36.5q127 0 247 97l63 218h-60q-56 0 -98 -2t-100 -11t-97.5 -25t-74 -47.5t-46.5 -74.5q-4 -13 -4 -30zM610 1235l53 186h185l-53 -186h-185zM1052 1235l54 186h185l-54 -186h-185z" />
<glyph unicode="&#xe5;" horiz-adv-x="1061" d="M184 194q0 30 9 62q20 71 67.5 123.5t109 84t146.5 51t168 26t186 6.5l22 76q16 56 16 93q0 130 -191 130q-98 0 -273 -43l3 118q177 60 335 60q161 0 231.5 -54t70.5 -153q0 -59 -22 -134l-184 -640h-116l-12 90q-150 -110 -306 -110q-118 0 -189 61.5t-71 152.5z M356 234q0 -52 47 -88.5t122 -36.5q127 0 247 97l63 218h-60q-56 0 -98 -2t-99.5 -11t-97 -25t-74 -47.5t-46.5 -74.5q-4 -13 -4 -30zM701 1271q0 35 10 69q28 96 111 164.5t172 68.5q71 0 115.5 -46t44.5 -119q0 -34 -10 -68q-28 -97 -111 -165t-172 -68q-71 0 -115.5 46 t-44.5 118zM795 1296q0 -43 24 -70.5t68 -27.5q53 0 101 43t64 99q6 22 6 43q0 43 -24 71t-65 28q-54 0 -102.5 -42t-65.5 -100q-6 -22 -6 -44z" />
<glyph unicode="&#xe6;" horiz-adv-x="1650" d="M185 197q0 30 9 63q31 110 143.5 186.5t290.5 93.5q89 9 239 9l15 49q14 47 14 92q0 155 -183 155q-93 0 -259 -42l-7 116q181 62 347 62q116 0 181 -45.5t79 -126.5q86 78 191 125t207 47q239 0 239 -254q0 -116 -53 -304h-642q-12 -42 -12 -80q0 -102 76 -166.5 t203 -64.5q75 0 212 35l-5 -111q-165 -56 -307 -56q-107 0 -192.5 37t-126.5 113q-157 -150 -385 -150q-117 0 -195.5 61t-78.5 156zM356 238q0 -54 50.5 -90.5t122.5 -36.5q125 0 239 92l63 220q-171 0 -274 -20.5t-142.5 -52t-54.5 -82.5q-4 -13 -4 -30zM1040 547h476 q21 74 21 130q0 162 -154 162q-118 0 -213 -86t-130 -206z" />
<glyph unicode="&#xe7;" horiz-adv-x="988" d="M214 -447l52 91q140 -47 187 -47q45 0 78 22.5t42 54.5q3 12 3 22q0 11 -4 20.5t-14 17.5t-19.5 14t-29.5 13.5t-34 12.5t-42 14.5t-46 15.5l96 176q-113 18 -184.5 87.5t-71.5 202.5q0 80 29 182q33 114 86.5 205t116 149.5t135.5 97t142.5 54.5t140.5 16q140 0 256 -59 l-73 -118q-97 36 -202 36q-51 0 -98.5 -9t-99 -33.5t-94.5 -62t-80.5 -100t-60.5 -142.5q-24 -83 -24 -152q0 -64 22 -109.5t61 -70t83.5 -35.5t99.5 -11q90 0 194 32l7 -112q-141 -49 -264 -54l-59 -110q1 0 14 -4t18.5 -6.5t19 -7.5t21 -10.5t19.5 -13t18.5 -16.5t14 -20 t10.5 -24.5t3 -29.5q0 -22 -7 -47q-21 -71 -91 -127t-162 -56q-21 0 -44 3.5t-49 10.5t-41.5 11.5t-43 14.5t-31.5 11z" />
<glyph unicode="&#xe8;" horiz-adv-x="1088" d="M229 275q0 83 27 175q39 135 109.5 240t156 167t175.5 93.5t179 31.5q267 0 267 -236q0 -91 -49 -265l-22 -76h-666q-10 -37 -10 -67q0 -95 73.5 -161t214.5 -66q99 0 230 35l-2 -111q-174 -55 -327 -55q-80 0 -142 15.5t-101.5 42t-65.5 65t-36.5 80.5t-10.5 92z M445 529h503q25 87 25 148q0 163 -172 163q-126 0 -223 -93t-133 -218zM774 1435l123 114l258 -339l-108 -104z" />
<glyph unicode="&#xe9;" horiz-adv-x="1088" d="M229 275q0 83 27 175q39 135 109.5 240t156 167t175.5 93.5t179 31.5q267 0 267 -236q0 -91 -49 -265l-22 -76h-666q-10 -37 -10 -67q0 -95 73.5 -161t214.5 -66q99 0 230 35l-2 -111q-174 -55 -327 -55q-80 0 -142 15.5t-101.5 42t-65.5 65t-36.5 80.5t-10.5 92z M445 529h503q25 87 25 148q0 163 -172 163q-126 0 -223 -93t-133 -218zM753 1210l452 339l58 -114l-462 -329z" />
<glyph unicode="&#xea;" horiz-adv-x="1088" d="M229 275q0 83 27 175q39 135 109.5 240t156 167t175.5 93.5t179 31.5q267 0 267 -236q0 -91 -49 -265l-22 -76h-666q-10 -37 -10 -67q0 -95 73.5 -161t214.5 -66q99 0 230 35l-2 -111q-174 -55 -327 -55q-80 0 -142 15.5t-101.5 42t-65.5 65t-36.5 80.5t-10.5 92z M445 529h503q25 87 25 148q0 163 -172 163q-126 0 -223 -93t-133 -218zM683 1180l364 310l165 -301l-119 -92l-113 206l-235 -205z" />
<glyph unicode="&#xeb;" horiz-adv-x="1095" d="M229 276q0 83 27 174q31 109 84 198.5t116 150.5t136 103t145 61t143 19q269 0 269 -236q0 -91 -49 -265l-22 -76h-670q-10 -37 -10 -67q0 -95 74 -161t216 -66q100 0 233 35l-3 -111q-176 -55 -329 -55q-100 0 -172 23t-112 65.5t-58 93.5t-18 114zM443 529h512 q24 82 24 146q0 165 -175 165q-128 0 -226.5 -93t-134.5 -218zM646 1235l53 186h185l-53 -186h-185zM1088 1235l54 186h185l-54 -186h-185z" />
<glyph unicode="&#xec;" horiz-adv-x="516" d="M176 0l283 988h164l-283 -988h-164zM413 1440l121 109l266 -324l-107 -100z" />
<glyph unicode="&#xed;" horiz-adv-x="516" d="M176 0l283 988h164l-283 -988h-164zM460 1225l452 324l59 -109l-461 -315z" />
<glyph unicode="&#xee;" horiz-adv-x="522" d="M176 0l283 988h164l-283 -988h-164zM359 1195l332 295l140 -286l-116 -88l-91 186l-202 -185z" />
<glyph unicode="&#xef;" horiz-adv-x="523" d="M180 0l283 988h164l-283 -988h-164zM339 1236l53 185h185l-53 -185h-185zM708 1236l53 185h185l-53 -185h-185z" />
<glyph unicode="&#xf0;" horiz-adv-x="1236" d="M227 286q0 105 48.5 221.5t128 213t192.5 159.5t230 63q141 0 299 -109q8 54 8 97q0 126 -69 222l-204 -103l-26 95l162 82q-71 64 -171 103l97 128q148 -45 246 -145l210 105l27 -95l-176 -87q71 -111 71 -255q0 -121 -50 -294q-24 -83 -49 -153t-60 -144.5t-73.5 -133 t-90.5 -111.5t-110.5 -88.5t-133.5 -56t-160 -20.5q-175 0 -260.5 84.5t-85.5 221.5zM406 359q0 -110 60.5 -177.5t160.5 -67.5q32 0 65.5 7.5t77.5 29t84.5 55.5t82 93.5t73.5 136.5q34 80 65 193l18 62q-149 116 -283 116q-126 0 -235.5 -91t-150.5 -235q-18 -60 -18 -122 z" />
<glyph unicode="&#xf1;" horiz-adv-x="1164" d="M176 0l276 963h115l12 -84q217 104 371 104q231 0 231 -204q0 -80 -36 -204l-165 -575h-165l167 583q19 68 19 110q0 142 -165 142q-114 0 -278 -74l-218 -761h-164zM593 1152l42 88q14 28 20 40.5t31 50t47.5 58t61 39t80.5 18.5q43 0 78 -19.5t57 -47t40.5 -55t39 -47 t42.5 -19.5q10 0 20.5 3.5t19 8.5t17.5 13t15.5 15.5t14 18.5t12 18.5t10 18.5t8 16.5t7 14.5t4.5 10l26 54l103 -17l-42 -88q-45 -92 -87 -136q-68 -72 -154 -72q-43 0 -78 19.5t-57.5 47t-41.5 55t-39.5 47t-42.5 19.5q-12 0 -23 -3.5t-20.5 -10.5t-18 -15t-16.5 -19 t-14 -19.5t-12 -21t-9.5 -19t-8 -16.5t-4.5 -11l-25 -53z" />
<glyph unicode="&#xf2;" horiz-adv-x="1195" d="M236 300q0 81 26 171q67 234 237 372.5t382 138.5q160 0 255 -82.5t95 -234.5q0 -76 -25 -164q-69 -239 -243 -380t-385 -141q-159 0 -250.5 84.5t-91.5 235.5zM410 366q0 -110 59.5 -178t166.5 -68q128 0 242 97t158 252q20 69 20 131q0 115 -65.5 178.5t-162.5 63.5 q-76 0 -153.5 -37.5t-145.5 -118t-99 -188.5q-20 -71 -20 -132zM842 1435l122 114l258 -339l-108 -104z" />
<glyph unicode="&#xf3;" horiz-adv-x="1195" d="M236 300q0 81 26 171q67 234 237 372.5t382 138.5q160 0 255 -82.5t95 -234.5q0 -76 -25 -164q-69 -239 -243 -380t-385 -141q-159 0 -250.5 84.5t-91.5 235.5zM410 366q0 -110 59.5 -178t166.5 -68q128 0 242 97t158 252q20 69 20 131q0 115 -65.5 178.5t-162.5 63.5 q-76 0 -153.5 -37.5t-145.5 -118t-99 -188.5q-20 -71 -20 -132zM684 1210l453 339l57 -114l-462 -329z" />
<glyph unicode="&#xf4;" horiz-adv-x="1195" d="M236 300q0 81 26 171q67 234 237 372.5t382 138.5q160 0 255 -82.5t95 -234.5q0 -76 -25 -164q-69 -239 -243 -380t-385 -141q-159 0 -250.5 84.5t-91.5 235.5zM410 366q0 -110 59.5 -178t166.5 -68q128 0 242 97t158 252q20 69 20 131q0 115 -65.5 178.5t-162.5 63.5 q-76 0 -153.5 -37.5t-145.5 -118t-99 -188.5q-20 -71 -20 -132zM676 1180l364 310l163 -301l-116 -92l-113 206l-236 -205z" />
<glyph unicode="&#xf5;" horiz-adv-x="1198" d="M236 301q0 80 26 170q67 233 237.5 372t383.5 139q160 0 255.5 -83t95.5 -235q0 -75 -25 -163q-69 -239 -243 -380t-386 -141q-160 0 -252 84.5t-92 236.5zM410 367q0 -111 60 -179t168 -68q129 0 243 96.5t158 252.5q20 69 20 130q0 115 -66 179t-164 64 q-77 0 -154.5 -37.5t-145.5 -118t-99 -188.5q-20 -71 -20 -131zM574 1151q3 7 22 47t25 52.5t25.5 47t31.5 48.5t34 38t41.5 34t46.5 19t56 9q43 0 78 -19.5t57 -47t41 -55t39.5 -47t42.5 -19.5q15 0 28.5 5t27 18.5t22 23.5t21 33.5t18 33.5t19 39.5t16.5 36.5l103 -17 q-3 -7 -22 -47t-25 -52.5t-25.5 -47t-31.5 -48.5t-34 -38t-41.5 -34t-46.5 -19t-56 -9q-43 0 -78 19.5t-57 47t-41 55t-39.5 47t-42.5 19.5q-13 0 -26 -5t-22.5 -12t-21 -20.5t-18.5 -24t-17 -30t-15.5 -30.5t-16 -34t-14.5 -32z" />
<glyph unicode="&#xf6;" horiz-adv-x="1203" d="M236 301q0 80 26 170q67 234 238.5 372.5t385.5 138.5q162 0 257.5 -83t95.5 -235q0 -75 -25 -163q-69 -239 -244 -380t-388 -141q-161 0 -253.5 84.5t-92.5 236.5zM410 367q0 -111 60.5 -179t169.5 -68q130 0 245.5 97t159.5 252q20 72 20 129q0 116 -67 180t-166 64 q-77 0 -155.5 -37.5t-147 -118t-99.5 -188.5q-20 -71 -20 -131zM669 1235l53 186h185l-53 -186h-185zM1112 1235l53 186h185l-53 -186h-185z" />
<glyph unicode="&#xf7;" horiz-adv-x="1400" d="M294 588l39 139h1150l-39 -139h-1150zM626 83l56 195h195l-56 -195h-195zM900 1038l56 195h195l-56 -195h-195z" />
<glyph unicode="&#xf8;" horiz-adv-x="1194" d="M119 41l147 116q-30 68 -30 149q0 79 26 167q67 233 237 371t381 138q193 0 285 -119l135 107l42 -56l-141 -110q29 -63 29 -144q0 -74 -25 -161q-68 -238 -241 -378.5t-384 -140.5q-188 0 -277 117l-143 -112zM410 366q0 -50 11 -88l596 469q-62 95 -189 95 q-88 0 -167.5 -44.5t-133.5 -114t-85.5 -153.5t-31.5 -164zM449 214q60 -94 187 -94q91 0 172 46.5t134 118t84 155.5t31 161q0 43 -11 82z" />
<glyph unicode="&#xf9;" horiz-adv-x="1164" d="M253 186q0 85 37 212l169 590h164l-173 -602q-19 -65 -19 -113q0 -146 164 -146q114 0 280 77l225 784h164l-284 -988h-115l-11 83q-215 -103 -372 -103q-229 0 -229 206zM792 1440l121 109l263 -324l-107 -100z" />
<glyph unicode="&#xfa;" horiz-adv-x="1164" d="M253 186q0 85 37 212l169 590h164l-173 -602q-19 -65 -19 -113q0 -146 164 -146q114 0 280 77l225 784h164l-284 -988h-115l-11 83q-215 -103 -372 -103q-229 0 -229 206zM747 1225l448 324l59 -109l-457 -315z" />
<glyph unicode="&#xfb;" horiz-adv-x="1164" d="M253 186q0 85 37 212l169 590h164l-173 -602q-19 -65 -19 -113q0 -146 164 -146q114 0 280 77l225 784h164l-284 -988h-115l-11 83q-215 -103 -372 -103q-229 0 -229 206zM667 1195l360 295l169 -286l-117 -88l-116 196l-232 -195z" />
<glyph unicode="&#xfc;" horiz-adv-x="1170" d="M253 187q0 80 37 211l169 590h164l-173 -602q-19 -65 -19 -112q0 -147 167 -147q114 0 282 77l225 784h164l-283 -988h-115l-11 83q-217 -103 -375 -103q-232 0 -232 207zM626 1235l53 186h185l-53 -186h-185zM1067 1235l53 186h185l-53 -186h-185z" />
<glyph unicode="&#xfd;" horiz-adv-x="1039" d="M101 -531l343 493l-112 1026h170l72 -838l527 838h170l-995 -1519h-175zM751 1225l449 324l59 -109l-458 -315z" />
<glyph unicode="&#xfe;" horiz-adv-x="1206" d="M33 -531l560 1952h164l-161 -561q136 118 313 118q148 0 239 -84.5t91 -234.5q0 -75 -25 -162q-65 -226 -236 -373t-365 -147q-74 0 -137.5 27.5t-102.5 79.5l-176 -615h-164zM445 299q0 -182 192 -182q39 0 82.5 11t92.5 37t92.5 65t81.5 101t60 138q20 67 20 129 q0 113 -65 176t-161 63q-260 0 -369 -382q-26 -92 -26 -156z" />
<glyph unicode="&#xff;" horiz-adv-x="1043" d="M101 -531l344 493l-113 1026h170l73 -838l531 838h170l-1000 -1519h-175zM574 1235l53 186h185l-53 -186h-185zM1017 1235l53 186h185l-53 -186h-185z" />
<glyph unicode="&#x152;" horiz-adv-x="1998" d="M376 443q0 118 41 260q97 338 325 521q67 54 144.5 92.5t144 58.5t151.5 30.5t143.5 13t143.5 2.5h776l-43 -150h-618l-133 -464h563l-43 -150h-563l-145 -507h618l-43 -150h-865q-122 0 -213 11.5t-164 46.5q-220 107 -220 385zM556 509q0 -215 166 -310 q53 -31 108.5 -40t136.5 -9h126l321 1121h-57q-125 0 -190 -10q-208 -31 -361 -179.5t-220 -380.5q-30 -104 -30 -192z" />
<glyph unicode="&#x153;" horiz-adv-x="1776" d="M235 293q0 84 28 181q66 231 229.5 367t370.5 136q123 0 200 -50.5t104 -143.5q56 60 118.5 100.5t119 58t96 24t75.5 6.5q252 0 252 -232q0 -98 -50 -270l-22 -75h-638q-9 -33 -9 -67q0 -92 68.5 -156t207.5 -64q88 0 215 35l-5 -111q-159 -55 -310 -55q-261 0 -320 181 q-173 -178 -406 -178q-154 0 -239 82.5t-85 230.5zM407 355q0 -107 55 -172t155 -65q83 0 158.5 46.5t125.5 118t79 157t29 164.5q0 103 -50.5 168t-151.5 65q-125 0 -231 -98.5t-149 -249.5q-20 -67 -20 -134zM1157 519h478q26 93 26 154q0 158 -160 158 q-120 0 -213.5 -92.5t-130.5 -219.5z" />
<glyph unicode="&#x178;" horiz-adv-x="1263" d="M507 1421h201l194 -587l538 587h190l-698 -748l-193 -673h-170l193 673zM834 1713l53 185h185l-53 -185h-185zM1284 1713l53 185h185l-53 -185h-185z" />
<glyph unicode="&#x2c6;" horiz-adv-x="1479" d="M800 1246l367 295l174 -286l-118 -88l-120 196l-237 -195z" />
<glyph unicode="&#x2dc;" horiz-adv-x="1400" d="M674 1284q5 6 31.5 40.5t35.5 46t34.5 41.5t40 42.5t40.5 34t46.5 30.5t47 16.5t52.5 7.5q44 0 79 -18.5t57.5 -45.5t42 -54t42 -45.5t47.5 -18.5q15 0 29 4.5t29 15.5t26 20.5t28 29.5t27 32.5t30.5 39t31.5 40.5l92 -47q-5 -7 -27.5 -36.5t-31.5 -40t-30.5 -37 t-34.5 -38.5t-34.5 -32.5t-39 -30.5t-40 -21.5t-45 -16t-45.5 -4.5q-44 0 -79 18.5t-57.5 45.5t-42 54t-42 45.5t-47.5 18.5q-17 0 -35 -8t-31 -17t-33 -31t-30.5 -35.5t-35.5 -46t-36 -46.5z" />
<glyph unicode="&#x2000;" horiz-adv-x="966" />
<glyph unicode="&#x2001;" horiz-adv-x="1932" />
<glyph unicode="&#x2002;" horiz-adv-x="966" />
<glyph unicode="&#x2003;" horiz-adv-x="1932" />
<glyph unicode="&#x2004;" horiz-adv-x="644" />
<glyph unicode="&#x2005;" horiz-adv-x="483" />
<glyph unicode="&#x2006;" horiz-adv-x="322" />
<glyph unicode="&#x2007;" horiz-adv-x="322" />
<glyph unicode="&#x2008;" horiz-adv-x="241" />
<glyph unicode="&#x2009;" horiz-adv-x="386" />
<glyph unicode="&#x200a;" horiz-adv-x="107" />
<glyph unicode="&#x2010;" horiz-adv-x="1210" d="M344 589l40 139h860l-40 -139h-860z" />
<glyph unicode="&#x2011;" horiz-adv-x="1210" d="M344 589l40 139h860l-40 -139h-860z" />
<glyph unicode="&#x2012;" horiz-adv-x="1210" d="M344 589l40 139h860l-40 -139h-860z" />
<glyph unicode="&#x2013;" horiz-adv-x="1159" d="M169 589l40 139h1159l-40 -139h-1159z" />
<glyph unicode="&#x2014;" horiz-adv-x="1384" d="M169 589l40 139h1384l-40 -139h-1384z" />
<glyph unicode="&#x2018;" horiz-adv-x="450" d="M523 1511h195l1 -433h-195z" />
<glyph unicode="&#x2019;" horiz-adv-x="450" d="M349 1078l249 433h195l-249 -433h-195z" />
<glyph unicode="&#x201a;" horiz-adv-x="450" d="M-22 -216l249 433h195l-249 -433h-195z" />
<glyph unicode="&#x201c;" horiz-adv-x="830" d="M349 1078l249 433h195l-249 -433h-195zM729 1078l249 433h195l-249 -433h-195z" />
<glyph unicode="&#x201d;" horiz-adv-x="830" d="M349 1078l249 433h195l-249 -433h-195zM729 1078l249 433h195l-249 -433h-195z" />
<glyph unicode="&#x201e;" horiz-adv-x="830" d="M-23 -219l249 433h195l-249 -433h-195zM357 -219l249 433h195l-249 -433h-195z" />
<glyph unicode="&#x2022;" horiz-adv-x="640" d="M363 603l74 260h260l-74 -260h-260z" />
<glyph unicode="&#x2026;" horiz-adv-x="1720" d="M180 0l60 210h210l-60 -210h-210zM745 0l60 210h210l-60 -210h-210zM1310 0l60 210h210l-60 -210h-210z" />
<glyph unicode="&#x202f;" horiz-adv-x="386" />
<glyph unicode="&#x2039;" horiz-adv-x="565" d="M254 623l358 365h186l-378 -365l169 -365h-185z" />
<glyph unicode="&#x203a;" horiz-adv-x="565" d="M124 258l379 365l-170 365h185l151 -365l-359 -365h-186z" />
<glyph unicode="&#x205f;" horiz-adv-x="483" />
<glyph unicode="&#x20ac;" horiz-adv-x="1335" d="M195 504l37 130h204q1 2 6.5 27t11.5 48.5t19.5 62.5t30.5 76h-147l37 130h176q125 209 318.5 331t411.5 122q173 0 327 -76l-88 -141q-156 67 -285 67q-146 0 -282.5 -82.5t-234.5 -220.5h451l-37 -130h-491q-51 -102 -70 -214h436l-37 -130h-408q6 -163 102 -265.5 t274 -102.5q138 0 307 60l11 -126q-212 -90 -401 -90q-218 0 -338.5 128.5t-120.5 343.5q0 16 2 52h-222z" />
<glyph unicode="&#x2122;" horiz-adv-x="1424" d="M520 1431l23 80h448l-23 -80h-175l-140 -488h-98l140 488h-175zM960 943l163 568h116l81 -317l257 317h120l-163 -568h-98l128 446l-244 -294h-68l-65 298l-129 -450h-98z" />
<glyph unicode="&#x25fc;" horiz-adv-x="965" d="M0 0v965h965v-965h-965z" />
<glyph unicode="&#xfb01;" horiz-adv-x="1344" d="M-261 -493l59 120q80 -23 147 -23q58 0 104.5 16t73.5 37t48 51.5t28.5 49t13.5 39.5l297 1037h-139l37 129h139l31 106q39 137 98 209q59 73 145 112t184 39q105 0 222 -39l-60 -124q-81 26 -147 26q-58 0 -105 -17.5t-74.5 -41t-49.5 -57t-30 -54t-15 -43.5l-33 -116 h323l-37 -129h-323l-295 -1030q-37 -129 -94 -195q-58 -67 -142.5 -103.5t-183.5 -36.5q-108 0 -222 38zM1000 0l283 988h164l-283 -988h-164zM1338 1232l54 189h194l-54 -189h-194z" />
<glyph unicode="&#xfb02;" horiz-adv-x="1384" d="M-261 -493l59 120q80 -23 147 -23q58 0 104.5 16t73.5 37t48 51.5t28.5 49t13.5 39.5l297 1037h-139l37 129h139l31 106q39 137 98 209q59 73 145 112t184 39q105 0 222 -39l-60 -124q-81 26 -147 26q-58 0 -105 -17.5t-74.5 -41t-49.5 -57t-30 -54t-15 -43.5l-33 -116 h323l-37 -129h-323l-295 -1030q-37 -129 -94 -195q-58 -67 -142.5 -103.5t-183.5 -36.5q-108 0 -222 38zM1020 0l433 1511h164l-433 -1511h-164z" />
<glyph unicode="&#xfb03;" horiz-adv-x="2164" d="M-261 -493l59 120q80 -23 147 -23q58 0 104.5 16t73.5 37t48 51.5t28.5 49t13.5 39.5l297 1037h-139l37 129h139l31 106q39 137 98 209q59 73 145 112t184 39q105 0 222 -39l-60 -124q-81 26 -147 26q-58 0 -105 -17.5t-74.5 -41t-49.5 -57t-30 -54t-15 -43.5l-33 -116 h323l-37 -129h-323l-295 -1030q-37 -129 -94 -195q-58 -67 -142.5 -103.5t-183.5 -36.5q-108 0 -222 38zM559 -493l59 120q80 -23 147 -23q58 0 104.5 16t73.5 37t48 51.5t28.5 49t13.5 39.5l297 1037h-139l37 129h139l31 106q39 137 98 209q59 73 145 112t184 39 q105 0 222 -39l-60 -124q-81 26 -147 26q-58 0 -105 -17.5t-74.5 -41t-49.5 -57t-30 -54t-15 -43.5l-33 -116h323l-37 -129h-323l-295 -1030q-37 -129 -94 -195q-58 -67 -142.5 -103.5t-183.5 -36.5q-108 0 -222 38zM1820 0l283 988h164l-283 -988h-164zM2158 1232l54 189 h194l-54 -189h-194z" />
<glyph unicode="&#xfb04;" horiz-adv-x="2204" d="M-261 -493l59 120q80 -23 147 -23q58 0 104.5 16t73.5 37t48 51.5t28.5 49t13.5 39.5l297 1037h-139l37 129h139l31 106q39 137 98 209q59 73 145 112t184 39q105 0 222 -39l-60 -124q-81 26 -147 26q-58 0 -105 -17.5t-74.5 -41t-49.5 -57t-30 -54t-15 -43.5l-33 -116 h323l-37 -129h-323l-295 -1030q-37 -129 -94 -195q-58 -67 -142.5 -103.5t-183.5 -36.5q-108 0 -222 38zM559 -493l59 120q80 -23 147 -23q58 0 104.5 16t73.5 37t48 51.5t28.5 49t13.5 39.5l297 1037h-139l37 129h139l31 106q39 137 98 209q59 73 145 112t184 39 q105 0 222 -39l-60 -124q-81 26 -147 26q-58 0 -105 -17.5t-74.5 -41t-49.5 -57t-30 -54t-15 -43.5l-33 -116h323l-37 -129h-323l-295 -1030q-37 -129 -94 -195q-58 -67 -142.5 -103.5t-183.5 -36.5q-108 0 -222 38zM1840 0l433 1511h164l-433 -1511h-164z" />
</font>
</defs>
</svg>
