<?xml version="1.0" encoding="UTF-8" standalone="no"?>
<svg width="256px" height="256px" viewBox="0 0 256 256" version="1.1" xmlns="http://www.w3.org/2000/svg" xmlns:xlink="http://www.w3.org/1999/xlink" xmlns:sketch="http://www.bohemiancoding.com/sketch/ns">
    <title>gwc_slides</title>
    <description>Created with Sketch (http://www.bohemiancoding.com/sketch)</description>
    <defs></defs>
    <g id="Page-1" stroke="none" stroke-width="1" fill="none" fill-rule="evenodd" sketch:type="MSPage">
        <g id="gwc_slides" sketch:type="MSArtboardGroup" fill="#215F7B">
            <g id="GeoWebCache-Suite" sketch:type="MSLayerGroup">
                <path d="M55.4814118,134.151974 L1.84376471,134.151974 C2.82729412,145.814293 7.74494118,157.255235 16.6390588,166.152736 L42.3096471,191.846539 C48.2767059,189.354872 54.5355294,187.126974 61.072,185.186394 C57.7072941,169.412157 55.7590588,152.205959 55.4814118,134.151974 L55.4814118,134.151974 Z M63.0578824,193.664655 C58.1967059,195.12951 53.5002353,196.75922 48.9731765,198.516104 L44.8037647,194.347626 L91.7731765,241.354872 L72.6531765,222.222264 C68.9025882,213.522626 65.6743529,203.951612 63.0578824,193.664655 L63.0578824,193.664655 Z M61.0578824,74.4273362 C54.5261176,72.4820464 48.272,70.2400174 42.3096471,67.7671913 L16.6296471,93.4563217 C7.74494118,102.353786 2.81317647,113.785307 1.83435294,125.461757 L55.472,125.461757 C55.7776941,107.403061 57.7214118,90.2016493 61.0578824,74.4273362 L61.0578824,74.4273362 Z M195.100235,185.186394 C201.641412,187.126974 207.895529,189.354872 213.862588,191.846539 L207.203765,198.516104 L239.533176,166.152736 C248.427294,157.255235 253.344941,145.814293 254.328471,134.151974 L200.690824,134.151974 C200.389647,152.205997 198.450824,169.412157 195.100235,185.186394 L195.100235,185.186394 Z M183.533176,222.208133 L207.203765,198.516142 C202.672,196.76393 197.994353,195.138968 193.137882,193.674075 C190.526118,203.956322 187.297882,213.513206 183.533176,222.208133 L183.533176,222.208133 Z M94.0178824,16.148713 C93.2555294,16.8222638 92.5025882,17.5194029 91.7731765,18.258858 C92.5025882,17.5194029 93.2555294,16.8222638 94.0178824,16.148713 L94.0178824,16.148713 Z M132.432,175.836794 C151.617882,176.166504 169.928471,178.606359 186.709647,182.85491 C189.876706,167.853099 191.730824,151.405272 192.003765,134.152012 L132.432,134.152012 L132.432,175.836794 L132.432,175.836794 L132.432,175.836794 L132.432,175.836794 Z M186.709647,76.7588957 C169.928471,81.0074087 151.617882,83.4472638 132.432,83.7770116 L132.432,125.461794 L192.017882,125.461794 C191.773176,108.194403 189.890824,91.7654174 186.709647,76.7588957 L186.709647,76.7588957 Z M161.970824,243.61578 C161.264941,244.242229 160.521412,244.807446 159.792,245.382084 C159.765647,245.424664 159.716706,245.466867 159.692988,245.504548 C160.469459,244.896939 161.227106,244.26578 161.970635,243.61578 L161.970824,243.61578 Z M132.431812,184.541142 L132.431812,256.168316 C142.168282,255.33933 151.716518,251.721939 159.791812,245.382084 C164.370635,239.838243 168.657694,233.121577 172.488282,225.378099 C177.3824,215.515055 181.518871,204.017591 184.732988,191.328461 C168.624753,187.244765 150.972988,184.861432 132.431812,184.541142 L132.431812,184.541142 Z M239.5424,93.4563594 L164.398871,18.2588957 C163.669459,17.5288232 162.916518,16.8317217 162.149459,16.1487507 C162.916518,16.8223014 163.669459,17.5288232 164.398871,18.2588957 L183.514165,37.3773739 C187.264753,46.0770116 190.492988,55.6574464 193.104753,65.9349826 C197.975341,64.4795478 202.671812,62.8545478 207.203576,61.0976638 L213.8624,67.767229 C207.895341,70.2400551 201.641224,72.4867942 195.100047,74.4273739 C198.464753,90.2016493 200.408282,107.403099 200.681224,125.461794 L254.328282,125.461794 C254.389647,126.173026 254.441224,126.888968 254.469459,127.61433 C253.956518,115.207809 248.968282,102.89549 239.5424,93.4563594 L239.5424,93.4563594 Z M69.4576941,182.85491 C86.2388706,178.606359 104.554165,176.166504 123.735341,175.836794 L123.735341,134.152012 L64.1541647,134.152012 C64.3943529,151.424113 66.2812235,167.848388 69.4576941,182.85491 L69.4576941,182.85491 Z M127.984753,3.25708406 C126.812988,3.25708406 125.631812,3.31850435 124.455341,3.39348986 C125.631812,3.31812754 126.803576,3.25708406 127.984753,3.25708406 L127.984753,3.25708406 Z M159.777694,14.1752 C159.792753,14.1789681 159.792753,14.1902725 159.792753,14.1902725 C159.819106,14.2279536 159.854118,14.2467942 159.882353,14.2705333 C159.856,14.2441565 159.820988,14.2045913 159.778824,14.1763304 L159.777694,14.1752 Z M83.6752941,34.2368377 C78.7764706,44.095171 74.6447059,55.6020551 71.4352941,68.2770551 C87.5435294,72.3607507 105.195294,74.7487942 123.736471,75.0737942 L123.736471,3.44662029 C123.981176,3.42777971 124.221176,3.42024348 124.456471,3.39462029 C114.522353,4.09172174 104.72,7.66668406 96.4847059,14.1101623 C91.8635294,19.668171 87.5435294,26.427229 83.6752941,34.2366493 L83.6752941,34.2368377 Z M132.432941,3.44643188 L132.432941,75.0736058 C150.974118,74.7484174 168.644706,72.3605623 184.734118,68.2768667 C178.978824,45.6116493 170.207059,26.7993304 159.792941,14.1902725 C150.522353,6.91309855 139.275294,3.25331594 128.070588,3.25802609 L127.985882,3.25802609 L128.070588,3.25802609 C129.52,3.25802609 130.974118,3.33338841 132.432941,3.44643188 L132.432941,3.44643188 Z M159.882353,14.2703449 C160.635294,14.859113 161.369412,15.4667217 162.094118,16.1073014 C161.369412,15.4666841 160.635294,14.859113 159.882353,14.2703449 L159.882353,14.2703449 Z M63.04,65.9359246 C65.6423529,55.6583884 68.8658824,46.1015043 72.6352941,37.4159971 L82.2917647,27.7460696 L46.0988235,63.9765043 L48.9741176,61.0986058 C53.4917647,62.8507797 58.1835294,64.4804899 63.04,65.9359246 L63.04,65.9359246 Z M96.2776471,245.293533 C104.362353,251.6852 113.957647,255.335562 123.736471,256.169258 L123.736471,184.542084 C105.195294,184.862374 87.5435294,187.245707 71.4352941,191.338823 C77.1717647,213.923968 85.9011765,232.689186 96.2776471,245.293533 L96.2776471,245.293533 Z M96.3668706,245.411099 C96.3405176,245.368519 96.3058824,245.330838 96.2776471,245.293533 C95.5529412,244.714186 94.8141176,244.153678 94.1129412,243.527229 C94.8517647,244.191359 95.6,244.817809 96.3670588,245.411287 L96.3668706,245.411099 Z M64.1741176,125.462736 L123.736471,125.462736 L123.736471,83.7779536 C104.545882,83.4482435 86.24,80.9989681 69.4541176,76.7598377 C66.2964706,91.7616116 64.4423529,108.200055 64.1741176,125.462699 L64.1741176,125.462736 Z" id="path38" sketch:type="MSShapeGroup"></path>
                <path d="M128.087529,3.28014493 L128.087529,3.28014493 C114.336941,3.28014493 101.442824,8.61202899 91.7816471,18.2725362 L16.6616471,93.4652899 C-3.35717647,113.497536 -3.35717647,146.10587 16.6616471,166.133406 L91.7816471,241.33087 C101.442824,250.991377 114.336941,256.323261 128.087529,256.323261 C141.838118,256.323261 154.732235,250.991377 164.398118,241.33087 L239.513412,166.133406 C259.522824,146.10587 259.522824,113.497536 239.513412,93.4652899 L164.398118,18.2725362 C154.732235,8.61202899 141.838118,3.28014493 128.087529,3.28014493 M128.087529,9.5257971 C139.645176,9.5257971 151.216941,13.9156522 159.984,22.6953623 L235.094588,97.8786957 C252.642824,115.442826 252.642824,144.16529 235.094588,161.72471 L159.984,236.903333 C151.216941,245.687754 139.645176,250.077609 128.087529,250.077609 C116.525176,250.077609 104.962824,245.678333 96.1957647,236.903333 L21.0757647,161.72471 C3.53223529,144.17471 3.53223529,115.442826 21.0682353,97.8786957 L96.1957647,22.6953623 C104.962824,13.9156522 116.525176,9.5257971 128.087529,9.5257971" id="path42" sketch:type="MSShapeGroup"></path>
            </g>
        </g>
    </g>
</svg>